<mxfile host="Electron" agent="Mozilla/5.0 (Windows NT 10.0; Win64; x64) AppleWebKit/537.36 (KHTML, like Gecko) draw.io/26.2.2 Chrome/134.0.6998.178 Electron/35.1.2 Safari/537.36" version="26.2.2" pages="3">
  <diagram name="Page-1" id="jwXUnuZrjjziRNIJtzxx">
    <mxGraphModel dx="6000" dy="4365" grid="1" gridSize="6" guides="1" tooltips="1" connect="1" arrows="1" fold="1" page="1" pageScale="1" pageWidth="850" pageHeight="1100" math="0" shadow="0">
      <root>
        <mxCell id="0" />
        <mxCell id="1" parent="0" />
        <mxCell id="kv-vLNv-k37LHlQtemCA-3" value="libraryMember" style="swimlane;fontStyle=0;childLayout=stackLayout;horizontal=1;startSize=30;horizontalStack=0;resizeParent=1;resizeParentMax=0;resizeLast=0;collapsible=1;marginBottom=0;whiteSpace=wrap;html=1;fillColor=#ffe6cc;strokeColor=#d79b00;" parent="1" vertex="1">
          <mxGeometry x="192" y="24" width="192" height="330" as="geometry" />
        </mxCell>
        <mxCell id="kv-vLNv-k37LHlQtemCA-4" value="libraryMember_id&amp;nbsp; &amp;nbsp; &amp;nbsp;P.K" style="text;strokeColor=none;fillColor=none;align=left;verticalAlign=middle;spacingLeft=4;spacingRight=4;overflow=hidden;points=[[0,0.5],[1,0.5]];portConstraint=eastwest;rotatable=0;whiteSpace=wrap;html=1;" parent="kv-vLNv-k37LHlQtemCA-3" vertex="1">
          <mxGeometry y="30" width="192" height="30" as="geometry" />
        </mxCell>
        <mxCell id="kv-vLNv-k37LHlQtemCA-5" value="libraryMember_first_name" style="text;strokeColor=none;fillColor=none;align=left;verticalAlign=middle;spacingLeft=4;spacingRight=4;overflow=hidden;points=[[0,0.5],[1,0.5]];portConstraint=eastwest;rotatable=0;whiteSpace=wrap;html=1;" parent="kv-vLNv-k37LHlQtemCA-3" vertex="1">
          <mxGeometry y="60" width="192" height="30" as="geometry" />
        </mxCell>
        <mxCell id="kv-vLNv-k37LHlQtemCA-7" value="libraryMember_last_name" style="text;strokeColor=none;fillColor=none;align=left;verticalAlign=middle;spacingLeft=4;spacingRight=4;overflow=hidden;points=[[0,0.5],[1,0.5]];portConstraint=eastwest;rotatable=0;whiteSpace=wrap;html=1;" parent="kv-vLNv-k37LHlQtemCA-3" vertex="1">
          <mxGeometry y="90" width="192" height="30" as="geometry" />
        </mxCell>
        <mxCell id="kv-vLNv-k37LHlQtemCA-8" value="libraryMember_nation_id" style="text;strokeColor=none;fillColor=none;align=left;verticalAlign=middle;spacingLeft=4;spacingRight=4;overflow=hidden;points=[[0,0.5],[1,0.5]];portConstraint=eastwest;rotatable=0;whiteSpace=wrap;html=1;" parent="kv-vLNv-k37LHlQtemCA-3" vertex="1">
          <mxGeometry y="120" width="192" height="30" as="geometry" />
        </mxCell>
        <mxCell id="kv-vLNv-k37LHlQtemCA-9" value="libraryMember_berth_date" style="text;strokeColor=none;fillColor=none;align=left;verticalAlign=middle;spacingLeft=4;spacingRight=4;overflow=hidden;points=[[0,0.5],[1,0.5]];portConstraint=eastwest;rotatable=0;whiteSpace=wrap;html=1;" parent="kv-vLNv-k37LHlQtemCA-3" vertex="1">
          <mxGeometry y="150" width="192" height="30" as="geometry" />
        </mxCell>
        <mxCell id="kv-vLNv-k37LHlQtemCA-10" value="libraryMember_phone_number" style="text;strokeColor=none;fillColor=none;align=left;verticalAlign=middle;spacingLeft=4;spacingRight=4;overflow=hidden;points=[[0,0.5],[1,0.5]];portConstraint=eastwest;rotatable=0;whiteSpace=wrap;html=1;" parent="kv-vLNv-k37LHlQtemCA-3" vertex="1">
          <mxGeometry y="180" width="192" height="30" as="geometry" />
        </mxCell>
        <mxCell id="kv-vLNv-k37LHlQtemCA-11" value="libraryMember_email" style="text;strokeColor=none;fillColor=none;align=left;verticalAlign=middle;spacingLeft=4;spacingRight=4;overflow=hidden;points=[[0,0.5],[1,0.5]];portConstraint=eastwest;rotatable=0;whiteSpace=wrap;html=1;" parent="kv-vLNv-k37LHlQtemCA-3" vertex="1">
          <mxGeometry y="210" width="192" height="30" as="geometry" />
        </mxCell>
        <mxCell id="kv-vLNv-k37LHlQtemCA-12" value="libraryMember_address" style="text;strokeColor=none;fillColor=none;align=left;verticalAlign=middle;spacingLeft=4;spacingRight=4;overflow=hidden;points=[[0,0.5],[1,0.5]];portConstraint=eastwest;rotatable=0;whiteSpace=wrap;html=1;" parent="kv-vLNv-k37LHlQtemCA-3" vertex="1">
          <mxGeometry y="240" width="192" height="30" as="geometry" />
        </mxCell>
        <mxCell id="kv-vLNv-k37LHlQtemCA-13" value="membership_date" style="text;strokeColor=none;fillColor=none;align=left;verticalAlign=middle;spacingLeft=4;spacingRight=4;overflow=hidden;points=[[0,0.5],[1,0.5]];portConstraint=eastwest;rotatable=0;whiteSpace=wrap;html=1;" parent="kv-vLNv-k37LHlQtemCA-3" vertex="1">
          <mxGeometry y="270" width="192" height="30" as="geometry" />
        </mxCell>
        <mxCell id="kv-vLNv-k37LHlQtemCA-14" value="membership_type_id&amp;nbsp; &amp;nbsp; &amp;nbsp;F.K" style="text;strokeColor=none;fillColor=none;align=left;verticalAlign=middle;spacingLeft=4;spacingRight=4;overflow=hidden;points=[[0,0.5],[1,0.5]];portConstraint=eastwest;rotatable=0;whiteSpace=wrap;html=1;" parent="kv-vLNv-k37LHlQtemCA-3" vertex="1">
          <mxGeometry y="300" width="192" height="30" as="geometry" />
        </mxCell>
        <mxCell id="kv-vLNv-k37LHlQtemCA-16" style="edgeStyle=orthogonalEdgeStyle;rounded=0;orthogonalLoop=1;jettySize=auto;html=1;exitX=1;exitY=0.5;exitDx=0;exitDy=0;" parent="kv-vLNv-k37LHlQtemCA-3" source="kv-vLNv-k37LHlQtemCA-8" target="kv-vLNv-k37LHlQtemCA-8" edge="1">
          <mxGeometry relative="1" as="geometry" />
        </mxCell>
        <mxCell id="kv-vLNv-k37LHlQtemCA-15" value="" style="rhombus;whiteSpace=wrap;html=1;" parent="1" vertex="1">
          <mxGeometry x="255" y="414" width="66" height="66" as="geometry" />
        </mxCell>
        <mxCell id="kv-vLNv-k37LHlQtemCA-18" value="MembershipType" style="swimlane;fontStyle=0;childLayout=stackLayout;horizontal=1;startSize=30;horizontalStack=0;resizeParent=1;resizeParentMax=0;resizeLast=0;collapsible=1;marginBottom=0;whiteSpace=wrap;html=1;fillColor=#ffe6cc;strokeColor=#d79b00;" parent="1" vertex="1">
          <mxGeometry x="192" y="540" width="192" height="150" as="geometry" />
        </mxCell>
        <mxCell id="kv-vLNv-k37LHlQtemCA-19" value="membership_type_id&amp;nbsp; &amp;nbsp; &amp;nbsp;P.K" style="text;strokeColor=none;fillColor=none;align=left;verticalAlign=middle;spacingLeft=4;spacingRight=4;overflow=hidden;points=[[0,0.5],[1,0.5]];portConstraint=eastwest;rotatable=0;whiteSpace=wrap;html=1;" parent="kv-vLNv-k37LHlQtemCA-18" vertex="1">
          <mxGeometry y="30" width="192" height="30" as="geometry" />
        </mxCell>
        <mxCell id="kv-vLNv-k37LHlQtemCA-20" value="title" style="text;strokeColor=none;fillColor=none;align=left;verticalAlign=middle;spacingLeft=4;spacingRight=4;overflow=hidden;points=[[0,0.5],[1,0.5]];portConstraint=eastwest;rotatable=0;whiteSpace=wrap;html=1;" parent="kv-vLNv-k37LHlQtemCA-18" vertex="1">
          <mxGeometry y="60" width="192" height="30" as="geometry" />
        </mxCell>
        <mxCell id="kv-vLNv-k37LHlQtemCA-21" value="durationDays" style="text;strokeColor=none;fillColor=none;align=left;verticalAlign=middle;spacingLeft=4;spacingRight=4;overflow=hidden;points=[[0,0.5],[1,0.5]];portConstraint=eastwest;rotatable=0;whiteSpace=wrap;html=1;" parent="kv-vLNv-k37LHlQtemCA-18" vertex="1">
          <mxGeometry y="90" width="192" height="30" as="geometry" />
        </mxCell>
        <mxCell id="kv-vLNv-k37LHlQtemCA-23" value="fee" style="text;strokeColor=none;fillColor=none;align=left;verticalAlign=middle;spacingLeft=4;spacingRight=4;overflow=hidden;points=[[0,0.5],[1,0.5]];portConstraint=eastwest;rotatable=0;whiteSpace=wrap;html=1;" parent="kv-vLNv-k37LHlQtemCA-18" vertex="1">
          <mxGeometry y="120" width="192" height="30" as="geometry" />
        </mxCell>
        <mxCell id="kv-vLNv-k37LHlQtemCA-24" value="" style="rhombus;whiteSpace=wrap;html=1;" parent="1" vertex="1">
          <mxGeometry x="30" y="156" width="68" height="66" as="geometry" />
        </mxCell>
        <mxCell id="kv-vLNv-k37LHlQtemCA-26" value="Joining_Group" style="swimlane;fontStyle=0;childLayout=stackLayout;horizontal=1;startSize=30;horizontalStack=0;resizeParent=1;resizeParentMax=0;resizeLast=0;collapsible=1;marginBottom=0;whiteSpace=wrap;html=1;fillColor=#ffe6cc;strokeColor=#d79b00;" parent="1" vertex="1">
          <mxGeometry x="-204" y="114" width="140" height="150" as="geometry" />
        </mxCell>
        <mxCell id="kv-vLNv-k37LHlQtemCA-27" value="Joining_Group_id&amp;nbsp; &amp;nbsp; &amp;nbsp;P.K" style="text;strokeColor=none;fillColor=none;align=left;verticalAlign=middle;spacingLeft=4;spacingRight=4;overflow=hidden;points=[[0,0.5],[1,0.5]];portConstraint=eastwest;rotatable=0;whiteSpace=wrap;html=1;" parent="kv-vLNv-k37LHlQtemCA-26" vertex="1">
          <mxGeometry y="30" width="140" height="30" as="geometry" />
        </mxCell>
        <mxCell id="kv-vLNv-k37LHlQtemCA-28" value="libraryMember_id&amp;nbsp; &amp;nbsp; &amp;nbsp;F.K" style="text;strokeColor=none;fillColor=none;align=left;verticalAlign=middle;spacingLeft=4;spacingRight=4;overflow=hidden;points=[[0,0.5],[1,0.5]];portConstraint=eastwest;rotatable=0;whiteSpace=wrap;html=1;" parent="kv-vLNv-k37LHlQtemCA-26" vertex="1">
          <mxGeometry y="60" width="140" height="30" as="geometry" />
        </mxCell>
        <mxCell id="kv-vLNv-k37LHlQtemCA-29" value="libraryGroup_id&amp;nbsp; &amp;nbsp; &amp;nbsp;F.K" style="text;strokeColor=none;fillColor=none;align=left;verticalAlign=middle;spacingLeft=4;spacingRight=4;overflow=hidden;points=[[0,0.5],[1,0.5]];portConstraint=eastwest;rotatable=0;whiteSpace=wrap;html=1;" parent="kv-vLNv-k37LHlQtemCA-26" vertex="1">
          <mxGeometry y="90" width="140" height="30" as="geometry" />
        </mxCell>
        <mxCell id="kv-vLNv-k37LHlQtemCA-30" value="Joining_Group_date" style="text;strokeColor=none;fillColor=none;align=left;verticalAlign=middle;spacingLeft=4;spacingRight=4;overflow=hidden;points=[[0,0.5],[1,0.5]];portConstraint=eastwest;rotatable=0;whiteSpace=wrap;html=1;" parent="kv-vLNv-k37LHlQtemCA-26" vertex="1">
          <mxGeometry y="120" width="140" height="30" as="geometry" />
        </mxCell>
        <mxCell id="kv-vLNv-k37LHlQtemCA-32" value="" style="rhombus;whiteSpace=wrap;html=1;" parent="1" vertex="1">
          <mxGeometry x="-354" y="156" width="68" height="66" as="geometry" />
        </mxCell>
        <mxCell id="kv-vLNv-k37LHlQtemCA-34" value="libraryGroup" style="swimlane;fontStyle=0;childLayout=stackLayout;horizontal=1;startSize=30;horizontalStack=0;resizeParent=1;resizeParentMax=0;resizeLast=0;collapsible=1;marginBottom=0;whiteSpace=wrap;html=1;fillColor=#ffe6cc;strokeColor=#d79b00;" parent="1" vertex="1">
          <mxGeometry x="-606" y="114" width="170" height="150" as="geometry" />
        </mxCell>
        <mxCell id="kv-vLNv-k37LHlQtemCA-35" value="libraryGroup_id&amp;nbsp; &amp;nbsp; &amp;nbsp;P.K" style="text;strokeColor=none;fillColor=none;align=left;verticalAlign=middle;spacingLeft=4;spacingRight=4;overflow=hidden;points=[[0,0.5],[1,0.5]];portConstraint=eastwest;rotatable=0;whiteSpace=wrap;html=1;" parent="kv-vLNv-k37LHlQtemCA-34" vertex="1">
          <mxGeometry y="30" width="170" height="30" as="geometry" />
        </mxCell>
        <mxCell id="kv-vLNv-k37LHlQtemCA-36" value="libraryGroup_name" style="text;strokeColor=none;fillColor=none;align=left;verticalAlign=middle;spacingLeft=4;spacingRight=4;overflow=hidden;points=[[0,0.5],[1,0.5]];portConstraint=eastwest;rotatable=0;whiteSpace=wrap;html=1;" parent="kv-vLNv-k37LHlQtemCA-34" vertex="1">
          <mxGeometry y="60" width="170" height="30" as="geometry" />
        </mxCell>
        <mxCell id="kv-vLNv-k37LHlQtemCA-37" value="librarycapacity" style="text;strokeColor=none;fillColor=none;align=left;verticalAlign=middle;spacingLeft=4;spacingRight=4;overflow=hidden;points=[[0,0.5],[1,0.5]];portConstraint=eastwest;rotatable=0;whiteSpace=wrap;html=1;" parent="kv-vLNv-k37LHlQtemCA-34" vertex="1">
          <mxGeometry y="90" width="170" height="30" as="geometry" />
        </mxCell>
        <mxCell id="kv-vLNv-k37LHlQtemCA-38" value="libraryGroup_formation_date" style="text;strokeColor=none;fillColor=none;align=left;verticalAlign=middle;spacingLeft=4;spacingRight=4;overflow=hidden;points=[[0,0.5],[1,0.5]];portConstraint=eastwest;rotatable=0;whiteSpace=wrap;html=1;" parent="kv-vLNv-k37LHlQtemCA-34" vertex="1">
          <mxGeometry y="120" width="170" height="30" as="geometry" />
        </mxCell>
        <mxCell id="kv-vLNv-k37LHlQtemCA-40" value="" style="rhombus;whiteSpace=wrap;html=1;" parent="1" vertex="1">
          <mxGeometry x="254" y="-144" width="68" height="66" as="geometry" />
        </mxCell>
        <mxCell id="kv-vLNv-k37LHlQtemCA-42" value="JoiningEvent" style="swimlane;fontStyle=0;childLayout=stackLayout;horizontal=1;startSize=30;horizontalStack=0;resizeParent=1;resizeParentMax=0;resizeLast=0;collapsible=1;marginBottom=0;whiteSpace=wrap;html=1;fillColor=#ffe6cc;strokeColor=#d79b00;" parent="1" vertex="1">
          <mxGeometry x="192" y="-384" width="192" height="150" as="geometry" />
        </mxCell>
        <mxCell id="kv-vLNv-k37LHlQtemCA-43" value="JoiningEvent_id&amp;nbsp; &amp;nbsp; &amp;nbsp;P.K" style="text;strokeColor=none;fillColor=none;align=left;verticalAlign=middle;spacingLeft=4;spacingRight=4;overflow=hidden;points=[[0,0.5],[1,0.5]];portConstraint=eastwest;rotatable=0;whiteSpace=wrap;html=1;" parent="kv-vLNv-k37LHlQtemCA-42" vertex="1">
          <mxGeometry y="30" width="192" height="30" as="geometry" />
        </mxCell>
        <mxCell id="kv-vLNv-k37LHlQtemCA-44" value="JoiningEvent_date" style="text;strokeColor=none;fillColor=none;align=left;verticalAlign=middle;spacingLeft=4;spacingRight=4;overflow=hidden;points=[[0,0.5],[1,0.5]];portConstraint=eastwest;rotatable=0;whiteSpace=wrap;html=1;" parent="kv-vLNv-k37LHlQtemCA-42" vertex="1">
          <mxGeometry y="60" width="192" height="30" as="geometry" />
        </mxCell>
        <mxCell id="kv-vLNv-k37LHlQtemCA-45" value="libraryMember_id&amp;nbsp; &amp;nbsp; &amp;nbsp;F.K" style="text;strokeColor=none;fillColor=none;align=left;verticalAlign=middle;spacingLeft=4;spacingRight=4;overflow=hidden;points=[[0,0.5],[1,0.5]];portConstraint=eastwest;rotatable=0;whiteSpace=wrap;html=1;" parent="kv-vLNv-k37LHlQtemCA-42" vertex="1">
          <mxGeometry y="90" width="192" height="30" as="geometry" />
        </mxCell>
        <mxCell id="kv-vLNv-k37LHlQtemCA-46" value="libraryEvent_id&amp;nbsp; &amp;nbsp; &amp;nbsp;F.K" style="text;strokeColor=none;fillColor=none;align=left;verticalAlign=middle;spacingLeft=4;spacingRight=4;overflow=hidden;points=[[0,0.5],[1,0.5]];portConstraint=eastwest;rotatable=0;whiteSpace=wrap;html=1;" parent="kv-vLNv-k37LHlQtemCA-42" vertex="1">
          <mxGeometry y="120" width="192" height="30" as="geometry" />
        </mxCell>
        <mxCell id="kv-vLNv-k37LHlQtemCA-51" value="" style="rhombus;whiteSpace=wrap;html=1;" parent="1" vertex="1">
          <mxGeometry x="248" y="-558" width="80" height="80" as="geometry" />
        </mxCell>
        <mxCell id="kv-vLNv-k37LHlQtemCA-53" value="libraryEvent" style="swimlane;fontStyle=0;childLayout=stackLayout;horizontal=1;startSize=30;horizontalStack=0;resizeParent=1;resizeParentMax=0;resizeLast=0;collapsible=1;marginBottom=0;whiteSpace=wrap;html=1;fillColor=#ffe6cc;strokeColor=#d79b00;" parent="1" vertex="1">
          <mxGeometry x="192" y="-834" width="192" height="180" as="geometry" />
        </mxCell>
        <mxCell id="kv-vLNv-k37LHlQtemCA-54" value="libraryEvent_id&amp;nbsp; &amp;nbsp; &amp;nbsp;P.K" style="text;strokeColor=none;fillColor=none;align=left;verticalAlign=middle;spacingLeft=4;spacingRight=4;overflow=hidden;points=[[0,0.5],[1,0.5]];portConstraint=eastwest;rotatable=0;whiteSpace=wrap;html=1;" parent="kv-vLNv-k37LHlQtemCA-53" vertex="1">
          <mxGeometry y="30" width="192" height="30" as="geometry" />
        </mxCell>
        <mxCell id="kv-vLNv-k37LHlQtemCA-55" value="libraryEvent_title" style="text;strokeColor=none;fillColor=none;align=left;verticalAlign=middle;spacingLeft=4;spacingRight=4;overflow=hidden;points=[[0,0.5],[1,0.5]];portConstraint=eastwest;rotatable=0;whiteSpace=wrap;html=1;" parent="kv-vLNv-k37LHlQtemCA-53" vertex="1">
          <mxGeometry y="60" width="192" height="30" as="geometry" />
        </mxCell>
        <mxCell id="kv-vLNv-k37LHlQtemCA-56" value="libraryEvent_date" style="text;strokeColor=none;fillColor=none;align=left;verticalAlign=middle;spacingLeft=4;spacingRight=4;overflow=hidden;points=[[0,0.5],[1,0.5]];portConstraint=eastwest;rotatable=0;whiteSpace=wrap;html=1;" parent="kv-vLNv-k37LHlQtemCA-53" vertex="1">
          <mxGeometry y="90" width="192" height="30" as="geometry" />
        </mxCell>
        <mxCell id="kv-vLNv-k37LHlQtemCA-57" value="libraryEvent_place" style="text;strokeColor=none;fillColor=none;align=left;verticalAlign=middle;spacingLeft=4;spacingRight=4;overflow=hidden;points=[[0,0.5],[1,0.5]];portConstraint=eastwest;rotatable=0;whiteSpace=wrap;html=1;" parent="kv-vLNv-k37LHlQtemCA-53" vertex="1">
          <mxGeometry y="120" width="192" height="30" as="geometry" />
        </mxCell>
        <mxCell id="kv-vLNv-k37LHlQtemCA-58" value="libraryEvent_clock" style="text;strokeColor=none;fillColor=none;align=left;verticalAlign=middle;spacingLeft=4;spacingRight=4;overflow=hidden;points=[[0,0.5],[1,0.5]];portConstraint=eastwest;rotatable=0;whiteSpace=wrap;html=1;" parent="kv-vLNv-k37LHlQtemCA-53" vertex="1">
          <mxGeometry y="150" width="192" height="30" as="geometry" />
        </mxCell>
        <mxCell id="kv-vLNv-k37LHlQtemCA-60" value="" style="rhombus;whiteSpace=wrap;html=1;" parent="1" vertex="1">
          <mxGeometry x="480" y="-784" width="80" height="80" as="geometry" />
        </mxCell>
        <mxCell id="kv-vLNv-k37LHlQtemCA-62" value="Notice" style="swimlane;fontStyle=0;childLayout=stackLayout;horizontal=1;startSize=30;horizontalStack=0;resizeParent=1;resizeParentMax=0;resizeLast=0;collapsible=1;marginBottom=0;whiteSpace=wrap;html=1;fillColor=#ffe6cc;strokeColor=#d79b00;" parent="1" vertex="1">
          <mxGeometry x="654" y="-834" width="186" height="180" as="geometry" />
        </mxCell>
        <mxCell id="kv-vLNv-k37LHlQtemCA-63" value="Notice_id&amp;nbsp; &amp;nbsp; &amp;nbsp;P.K" style="text;strokeColor=none;fillColor=none;align=left;verticalAlign=middle;spacingLeft=4;spacingRight=4;overflow=hidden;points=[[0,0.5],[1,0.5]];portConstraint=eastwest;rotatable=0;whiteSpace=wrap;html=1;" parent="kv-vLNv-k37LHlQtemCA-62" vertex="1">
          <mxGeometry y="30" width="186" height="30" as="geometry" />
        </mxCell>
        <mxCell id="kv-vLNv-k37LHlQtemCA-64" value="Notice_information" style="text;strokeColor=none;fillColor=none;align=left;verticalAlign=middle;spacingLeft=4;spacingRight=4;overflow=hidden;points=[[0,0.5],[1,0.5]];portConstraint=eastwest;rotatable=0;whiteSpace=wrap;html=1;" parent="kv-vLNv-k37LHlQtemCA-62" vertex="1">
          <mxGeometry y="60" width="186" height="30" as="geometry" />
        </mxCell>
        <mxCell id="kv-vLNv-k37LHlQtemCA-65" value="Notice_date" style="text;strokeColor=none;fillColor=none;align=left;verticalAlign=middle;spacingLeft=4;spacingRight=4;overflow=hidden;points=[[0,0.5],[1,0.5]];portConstraint=eastwest;rotatable=0;whiteSpace=wrap;html=1;" parent="kv-vLNv-k37LHlQtemCA-62" vertex="1">
          <mxGeometry y="90" width="186" height="30" as="geometry" />
        </mxCell>
        <mxCell id="kv-vLNv-k37LHlQtemCA-66" value="librarian_id&amp;nbsp; &amp;nbsp; &amp;nbsp;F.K" style="text;strokeColor=none;fillColor=none;align=left;verticalAlign=middle;spacingLeft=4;spacingRight=4;overflow=hidden;points=[[0,0.5],[1,0.5]];portConstraint=eastwest;rotatable=0;whiteSpace=wrap;html=1;" parent="kv-vLNv-k37LHlQtemCA-62" vertex="1">
          <mxGeometry y="120" width="186" height="30" as="geometry" />
        </mxCell>
        <mxCell id="kv-vLNv-k37LHlQtemCA-67" value="libraryEvent_id&amp;nbsp; &amp;nbsp; &amp;nbsp;F.K" style="text;strokeColor=none;fillColor=none;align=left;verticalAlign=middle;spacingLeft=4;spacingRight=4;overflow=hidden;points=[[0,0.5],[1,0.5]];portConstraint=eastwest;rotatable=0;whiteSpace=wrap;html=1;" parent="kv-vLNv-k37LHlQtemCA-62" vertex="1">
          <mxGeometry y="150" width="186" height="30" as="geometry" />
        </mxCell>
        <mxCell id="kv-vLNv-k37LHlQtemCA-69" value="" style="rhombus;whiteSpace=wrap;html=1;" parent="1" vertex="1">
          <mxGeometry x="942" y="-784" width="80" height="80" as="geometry" />
        </mxCell>
        <mxCell id="kv-vLNv-k37LHlQtemCA-71" value="librarian" style="swimlane;fontStyle=0;childLayout=stackLayout;horizontal=1;startSize=30;horizontalStack=0;resizeParent=1;resizeParentMax=0;resizeLast=0;collapsible=1;marginBottom=0;whiteSpace=wrap;html=1;fillColor=#ffe6cc;strokeColor=#d79b00;" parent="1" vertex="1">
          <mxGeometry x="1122" y="-879" width="180" height="270" as="geometry" />
        </mxCell>
        <mxCell id="kv-vLNv-k37LHlQtemCA-72" value="librarian_id&amp;nbsp; &amp;nbsp; &amp;nbsp;P.K" style="text;strokeColor=none;fillColor=none;align=left;verticalAlign=middle;spacingLeft=4;spacingRight=4;overflow=hidden;points=[[0,0.5],[1,0.5]];portConstraint=eastwest;rotatable=0;whiteSpace=wrap;html=1;" parent="kv-vLNv-k37LHlQtemCA-71" vertex="1">
          <mxGeometry y="30" width="180" height="30" as="geometry" />
        </mxCell>
        <mxCell id="kv-vLNv-k37LHlQtemCA-73" value="librarian_first_name" style="text;strokeColor=none;fillColor=none;align=left;verticalAlign=middle;spacingLeft=4;spacingRight=4;overflow=hidden;points=[[0,0.5],[1,0.5]];portConstraint=eastwest;rotatable=0;whiteSpace=wrap;html=1;" parent="kv-vLNv-k37LHlQtemCA-71" vertex="1">
          <mxGeometry y="60" width="180" height="30" as="geometry" />
        </mxCell>
        <mxCell id="kv-vLNv-k37LHlQtemCA-74" value="librarian_last_name" style="text;strokeColor=none;fillColor=none;align=left;verticalAlign=middle;spacingLeft=4;spacingRight=4;overflow=hidden;points=[[0,0.5],[1,0.5]];portConstraint=eastwest;rotatable=0;whiteSpace=wrap;html=1;" parent="kv-vLNv-k37LHlQtemCA-71" vertex="1">
          <mxGeometry y="90" width="180" height="30" as="geometry" />
        </mxCell>
        <mxCell id="kv-vLNv-k37LHlQtemCA-75" value="librarian_addres" style="text;strokeColor=none;fillColor=none;align=left;verticalAlign=middle;spacingLeft=4;spacingRight=4;overflow=hidden;points=[[0,0.5],[1,0.5]];portConstraint=eastwest;rotatable=0;whiteSpace=wrap;html=1;" parent="kv-vLNv-k37LHlQtemCA-71" vertex="1">
          <mxGeometry y="120" width="180" height="30" as="geometry" />
        </mxCell>
        <mxCell id="kv-vLNv-k37LHlQtemCA-76" value="librarian_email" style="text;strokeColor=none;fillColor=none;align=left;verticalAlign=middle;spacingLeft=4;spacingRight=4;overflow=hidden;points=[[0,0.5],[1,0.5]];portConstraint=eastwest;rotatable=0;whiteSpace=wrap;html=1;" parent="kv-vLNv-k37LHlQtemCA-71" vertex="1">
          <mxGeometry y="150" width="180" height="30" as="geometry" />
        </mxCell>
        <mxCell id="kv-vLNv-k37LHlQtemCA-77" value="librarian_nation_id" style="text;strokeColor=none;fillColor=none;align=left;verticalAlign=middle;spacingLeft=4;spacingRight=4;overflow=hidden;points=[[0,0.5],[1,0.5]];portConstraint=eastwest;rotatable=0;whiteSpace=wrap;html=1;" parent="kv-vLNv-k37LHlQtemCA-71" vertex="1">
          <mxGeometry y="180" width="180" height="30" as="geometry" />
        </mxCell>
        <mxCell id="kv-vLNv-k37LHlQtemCA-78" value="librarian_phone_number" style="text;strokeColor=none;fillColor=none;align=left;verticalAlign=middle;spacingLeft=4;spacingRight=4;overflow=hidden;points=[[0,0.5],[1,0.5]];portConstraint=eastwest;rotatable=0;whiteSpace=wrap;html=1;" parent="kv-vLNv-k37LHlQtemCA-71" vertex="1">
          <mxGeometry y="210" width="180" height="30" as="geometry" />
        </mxCell>
        <mxCell id="kv-vLNv-k37LHlQtemCA-79" value="librarian_birth_date" style="text;strokeColor=none;fillColor=none;align=left;verticalAlign=middle;spacingLeft=4;spacingRight=4;overflow=hidden;points=[[0,0.5],[1,0.5]];portConstraint=eastwest;rotatable=0;whiteSpace=wrap;html=1;" parent="kv-vLNv-k37LHlQtemCA-71" vertex="1">
          <mxGeometry y="240" width="180" height="30" as="geometry" />
        </mxCell>
        <mxCell id="kv-vLNv-k37LHlQtemCA-81" value="" style="rhombus;whiteSpace=wrap;html=1;" parent="1" vertex="1">
          <mxGeometry x="480" y="149" width="80" height="80" as="geometry" />
        </mxCell>
        <mxCell id="kv-vLNv-k37LHlQtemCA-83" value="&lt;span style=&quot;text-align: left;&quot;&gt;Loan&lt;/span&gt;" style="swimlane;fontStyle=0;childLayout=stackLayout;horizontal=1;startSize=30;horizontalStack=0;resizeParent=1;resizeParentMax=0;resizeLast=0;collapsible=1;marginBottom=0;whiteSpace=wrap;html=1;fillColor=#ffe6cc;strokeColor=#d79b00;" parent="1" vertex="1">
          <mxGeometry x="654" y="99" width="140" height="180" as="geometry" />
        </mxCell>
        <mxCell id="kv-vLNv-k37LHlQtemCA-84" value="Loan_id&amp;nbsp; &amp;nbsp; &amp;nbsp;P.K" style="text;strokeColor=none;fillColor=none;align=left;verticalAlign=middle;spacingLeft=4;spacingRight=4;overflow=hidden;points=[[0,0.5],[1,0.5]];portConstraint=eastwest;rotatable=0;whiteSpace=wrap;html=1;" parent="kv-vLNv-k37LHlQtemCA-83" vertex="1">
          <mxGeometry y="30" width="140" height="30" as="geometry" />
        </mxCell>
        <mxCell id="kv-vLNv-k37LHlQtemCA-85" value="Loan_date" style="text;strokeColor=none;fillColor=none;align=left;verticalAlign=middle;spacingLeft=4;spacingRight=4;overflow=hidden;points=[[0,0.5],[1,0.5]];portConstraint=eastwest;rotatable=0;whiteSpace=wrap;html=1;" parent="kv-vLNv-k37LHlQtemCA-83" vertex="1">
          <mxGeometry y="60" width="140" height="30" as="geometry" />
        </mxCell>
        <mxCell id="kv-vLNv-k37LHlQtemCA-86" value="Loan_return_date" style="text;strokeColor=none;fillColor=none;align=left;verticalAlign=middle;spacingLeft=4;spacingRight=4;overflow=hidden;points=[[0,0.5],[1,0.5]];portConstraint=eastwest;rotatable=0;whiteSpace=wrap;html=1;" parent="kv-vLNv-k37LHlQtemCA-83" vertex="1">
          <mxGeometry y="90" width="140" height="30" as="geometry" />
        </mxCell>
        <mxCell id="kv-vLNv-k37LHlQtemCA-87" value="Book_id&amp;nbsp; &amp;nbsp; &amp;nbsp;F.K" style="text;strokeColor=none;fillColor=none;align=left;verticalAlign=middle;spacingLeft=4;spacingRight=4;overflow=hidden;points=[[0,0.5],[1,0.5]];portConstraint=eastwest;rotatable=0;whiteSpace=wrap;html=1;" parent="kv-vLNv-k37LHlQtemCA-83" vertex="1">
          <mxGeometry y="120" width="140" height="30" as="geometry" />
        </mxCell>
        <mxCell id="kv-vLNv-k37LHlQtemCA-88" value="libraryMember_id&amp;nbsp; &amp;nbsp; &amp;nbsp;F.K" style="text;strokeColor=none;fillColor=none;align=left;verticalAlign=middle;spacingLeft=4;spacingRight=4;overflow=hidden;points=[[0,0.5],[1,0.5]];portConstraint=eastwest;rotatable=0;whiteSpace=wrap;html=1;" parent="kv-vLNv-k37LHlQtemCA-83" vertex="1">
          <mxGeometry y="150" width="140" height="30" as="geometry" />
        </mxCell>
        <mxCell id="kv-vLNv-k37LHlQtemCA-91" value="" style="rhombus;whiteSpace=wrap;html=1;" parent="1" vertex="1">
          <mxGeometry x="894" y="149" width="80" height="80" as="geometry" />
        </mxCell>
        <mxCell id="kv-vLNv-k37LHlQtemCA-93" value="Book" style="swimlane;fontStyle=0;childLayout=stackLayout;horizontal=1;startSize=30;horizontalStack=0;resizeParent=1;resizeParentMax=0;resizeLast=0;collapsible=1;marginBottom=0;whiteSpace=wrap;html=1;fillColor=#ffe6cc;strokeColor=#d79b00;" parent="1" vertex="1">
          <mxGeometry x="1074" y="144" width="140" height="96" as="geometry" />
        </mxCell>
        <mxCell id="kv-vLNv-k37LHlQtemCA-98" value="Book_id&amp;nbsp; &amp;nbsp; &amp;nbsp;P.K" style="text;strokeColor=none;fillColor=none;align=left;verticalAlign=middle;spacingLeft=4;spacingRight=4;overflow=hidden;points=[[0,0.5],[1,0.5]];portConstraint=eastwest;rotatable=0;whiteSpace=wrap;html=1;" parent="kv-vLNv-k37LHlQtemCA-93" vertex="1">
          <mxGeometry y="30" width="140" height="30" as="geometry" />
        </mxCell>
        <mxCell id="kv-vLNv-k37LHlQtemCA-94" value="Book_title" style="text;strokeColor=none;fillColor=none;align=left;verticalAlign=middle;spacingLeft=4;spacingRight=4;overflow=hidden;points=[[0,0.5],[1,0.5]];portConstraint=eastwest;rotatable=0;whiteSpace=wrap;html=1;" parent="kv-vLNv-k37LHlQtemCA-93" vertex="1">
          <mxGeometry y="60" width="140" height="36" as="geometry" />
        </mxCell>
        <mxCell id="kv-vLNv-k37LHlQtemCA-100" value="" style="rhombus;whiteSpace=wrap;html=1;" parent="1" vertex="1">
          <mxGeometry x="1302" y="149" width="80" height="80" as="geometry" />
        </mxCell>
        <mxCell id="kv-vLNv-k37LHlQtemCA-102" value="Compilation" style="swimlane;fontStyle=0;childLayout=stackLayout;horizontal=1;startSize=30;horizontalStack=0;resizeParent=1;resizeParentMax=0;resizeLast=0;collapsible=1;marginBottom=0;whiteSpace=wrap;html=1;fillColor=#ffe6cc;strokeColor=#d79b00;" parent="1" vertex="1">
          <mxGeometry x="1470" y="129" width="140" height="120" as="geometry" />
        </mxCell>
        <mxCell id="kv-vLNv-k37LHlQtemCA-103" value="Compilation_id&amp;nbsp; &amp;nbsp; &amp;nbsp;P.K" style="text;strokeColor=none;fillColor=none;align=left;verticalAlign=middle;spacingLeft=4;spacingRight=4;overflow=hidden;points=[[0,0.5],[1,0.5]];portConstraint=eastwest;rotatable=0;whiteSpace=wrap;html=1;" parent="kv-vLNv-k37LHlQtemCA-102" vertex="1">
          <mxGeometry y="30" width="140" height="30" as="geometry" />
        </mxCell>
        <mxCell id="kv-vLNv-k37LHlQtemCA-104" value="Author_id&amp;nbsp; &amp;nbsp; &amp;nbsp;F.K" style="text;strokeColor=none;fillColor=none;align=left;verticalAlign=middle;spacingLeft=4;spacingRight=4;overflow=hidden;points=[[0,0.5],[1,0.5]];portConstraint=eastwest;rotatable=0;whiteSpace=wrap;html=1;" parent="kv-vLNv-k37LHlQtemCA-102" vertex="1">
          <mxGeometry y="60" width="140" height="30" as="geometry" />
        </mxCell>
        <mxCell id="kv-vLNv-k37LHlQtemCA-106" value="Book_id&amp;nbsp; &amp;nbsp; &amp;nbsp;F.K" style="text;strokeColor=none;fillColor=none;align=left;verticalAlign=middle;spacingLeft=4;spacingRight=4;overflow=hidden;points=[[0,0.5],[1,0.5]];portConstraint=eastwest;rotatable=0;whiteSpace=wrap;html=1;" parent="kv-vLNv-k37LHlQtemCA-102" vertex="1">
          <mxGeometry y="90" width="140" height="30" as="geometry" />
        </mxCell>
        <mxCell id="tKyiOV9jWs2FuvqC6Y-0-1" value="" style="rhombus;whiteSpace=wrap;html=1;" vertex="1" parent="1">
          <mxGeometry x="684" y="372" width="80" height="80" as="geometry" />
        </mxCell>
        <mxCell id="tKyiOV9jWs2FuvqC6Y-0-3" value="Penalty" style="swimlane;fontStyle=0;childLayout=stackLayout;horizontal=1;startSize=30;horizontalStack=0;resizeParent=1;resizeParentMax=0;resizeLast=0;collapsible=1;marginBottom=0;whiteSpace=wrap;html=1;fillColor=#ffe6cc;strokeColor=#d79b00;" vertex="1" parent="1">
          <mxGeometry x="654" y="546" width="140" height="180" as="geometry" />
        </mxCell>
        <mxCell id="tKyiOV9jWs2FuvqC6Y-0-4" value="Penalty_id&amp;nbsp; &amp;nbsp; &amp;nbsp;P.K" style="text;strokeColor=none;fillColor=none;align=left;verticalAlign=middle;spacingLeft=4;spacingRight=4;overflow=hidden;points=[[0,0.5],[1,0.5]];portConstraint=eastwest;rotatable=0;whiteSpace=wrap;html=1;" vertex="1" parent="tKyiOV9jWs2FuvqC6Y-0-3">
          <mxGeometry y="30" width="140" height="30" as="geometry" />
        </mxCell>
        <mxCell id="tKyiOV9jWs2FuvqC6Y-0-5" value="Loan_id&amp;nbsp; &amp;nbsp; &amp;nbsp;F.K" style="text;strokeColor=none;fillColor=none;align=left;verticalAlign=middle;spacingLeft=4;spacingRight=4;overflow=hidden;points=[[0,0.5],[1,0.5]];portConstraint=eastwest;rotatable=0;whiteSpace=wrap;html=1;" vertex="1" parent="tKyiOV9jWs2FuvqC6Y-0-3">
          <mxGeometry y="60" width="140" height="30" as="geometry" />
        </mxCell>
        <mxCell id="tKyiOV9jWs2FuvqC6Y-0-6" value="Penalty_amount" style="text;strokeColor=none;fillColor=none;align=left;verticalAlign=middle;spacingLeft=4;spacingRight=4;overflow=hidden;points=[[0,0.5],[1,0.5]];portConstraint=eastwest;rotatable=0;whiteSpace=wrap;html=1;" vertex="1" parent="tKyiOV9jWs2FuvqC6Y-0-3">
          <mxGeometry y="90" width="140" height="30" as="geometry" />
        </mxCell>
        <mxCell id="tKyiOV9jWs2FuvqC6Y-0-7" value="Penalty_date" style="text;strokeColor=none;fillColor=none;align=left;verticalAlign=middle;spacingLeft=4;spacingRight=4;overflow=hidden;points=[[0,0.5],[1,0.5]];portConstraint=eastwest;rotatable=0;whiteSpace=wrap;html=1;" vertex="1" parent="tKyiOV9jWs2FuvqC6Y-0-3">
          <mxGeometry y="120" width="140" height="30" as="geometry" />
        </mxCell>
        <mxCell id="tKyiOV9jWs2FuvqC6Y-0-8" value="Penalty_information" style="text;strokeColor=none;fillColor=none;align=left;verticalAlign=middle;spacingLeft=4;spacingRight=4;overflow=hidden;points=[[0,0.5],[1,0.5]];portConstraint=eastwest;rotatable=0;whiteSpace=wrap;html=1;" vertex="1" parent="tKyiOV9jWs2FuvqC6Y-0-3">
          <mxGeometry y="150" width="140" height="30" as="geometry" />
        </mxCell>
        <mxCell id="tKyiOV9jWs2FuvqC6Y-0-10" value="" style="rhombus;whiteSpace=wrap;html=1;" vertex="1" parent="1">
          <mxGeometry x="684" y="810" width="80" height="80" as="geometry" />
        </mxCell>
        <mxCell id="tKyiOV9jWs2FuvqC6Y-0-12" value="Payment" style="swimlane;fontStyle=0;childLayout=stackLayout;horizontal=1;startSize=30;horizontalStack=0;resizeParent=1;resizeParentMax=0;resizeLast=0;collapsible=1;marginBottom=0;whiteSpace=wrap;html=1;fillColor=#ffe6cc;strokeColor=#d79b00;" vertex="1" parent="1">
          <mxGeometry x="654" y="972" width="140" height="150" as="geometry" />
        </mxCell>
        <mxCell id="tKyiOV9jWs2FuvqC6Y-0-13" value="Payment_id&amp;nbsp; &amp;nbsp; &amp;nbsp;P.K" style="text;strokeColor=none;fillColor=none;align=left;verticalAlign=middle;spacingLeft=4;spacingRight=4;overflow=hidden;points=[[0,0.5],[1,0.5]];portConstraint=eastwest;rotatable=0;whiteSpace=wrap;html=1;" vertex="1" parent="tKyiOV9jWs2FuvqC6Y-0-12">
          <mxGeometry y="30" width="140" height="30" as="geometry" />
        </mxCell>
        <mxCell id="tKyiOV9jWs2FuvqC6Y-0-14" value="Payment_way" style="text;strokeColor=none;fillColor=none;align=left;verticalAlign=middle;spacingLeft=4;spacingRight=4;overflow=hidden;points=[[0,0.5],[1,0.5]];portConstraint=eastwest;rotatable=0;whiteSpace=wrap;html=1;" vertex="1" parent="tKyiOV9jWs2FuvqC6Y-0-12">
          <mxGeometry y="60" width="140" height="30" as="geometry" />
        </mxCell>
        <mxCell id="tKyiOV9jWs2FuvqC6Y-0-15" value="Payment_date" style="text;strokeColor=none;fillColor=none;align=left;verticalAlign=middle;spacingLeft=4;spacingRight=4;overflow=hidden;points=[[0,0.5],[1,0.5]];portConstraint=eastwest;rotatable=0;whiteSpace=wrap;html=1;" vertex="1" parent="tKyiOV9jWs2FuvqC6Y-0-12">
          <mxGeometry y="90" width="140" height="30" as="geometry" />
        </mxCell>
        <mxCell id="tKyiOV9jWs2FuvqC6Y-0-16" value="Penalty_id&amp;nbsp; &amp;nbsp; &amp;nbsp;F.K" style="text;strokeColor=none;fillColor=none;align=left;verticalAlign=middle;spacingLeft=4;spacingRight=4;overflow=hidden;points=[[0,0.5],[1,0.5]];portConstraint=eastwest;rotatable=0;whiteSpace=wrap;html=1;" vertex="1" parent="tKyiOV9jWs2FuvqC6Y-0-12">
          <mxGeometry y="120" width="140" height="30" as="geometry" />
        </mxCell>
        <mxCell id="tKyiOV9jWs2FuvqC6Y-0-18" value="" style="rhombus;whiteSpace=wrap;html=1;" vertex="1" parent="1">
          <mxGeometry x="1214" y="-30" width="80" height="80" as="geometry" />
        </mxCell>
        <mxCell id="tKyiOV9jWs2FuvqC6Y-0-19" value="" style="rhombus;whiteSpace=wrap;html=1;" vertex="1" parent="1">
          <mxGeometry x="994" y="-30" width="80" height="80" as="geometry" />
        </mxCell>
        <mxCell id="tKyiOV9jWs2FuvqC6Y-0-22" value="" style="endArrow=classic;html=1;rounded=0;entryX=0.5;entryY=1;entryDx=0;entryDy=0;" edge="1" parent="1" target="tKyiOV9jWs2FuvqC6Y-0-19">
          <mxGeometry width="50" height="50" relative="1" as="geometry">
            <mxPoint x="1116" y="96" as="sourcePoint" />
            <mxPoint x="1112" y="36" as="targetPoint" />
            <Array as="points">
              <mxPoint x="1116" y="144" />
              <mxPoint x="1116" y="96" />
            </Array>
          </mxGeometry>
        </mxCell>
        <mxCell id="tKyiOV9jWs2FuvqC6Y-0-23" value="" style="endArrow=classic;html=1;rounded=0;exitX=0.75;exitY=0;exitDx=0;exitDy=0;entryX=0.5;entryY=1;entryDx=0;entryDy=0;" edge="1" parent="1" source="kv-vLNv-k37LHlQtemCA-93" target="tKyiOV9jWs2FuvqC6Y-0-18">
          <mxGeometry width="50" height="50" relative="1" as="geometry">
            <mxPoint x="1158" y="96" as="sourcePoint" />
            <mxPoint x="1112" y="36" as="targetPoint" />
            <Array as="points">
              <mxPoint x="1179" y="96" />
            </Array>
          </mxGeometry>
        </mxCell>
        <mxCell id="tKyiOV9jWs2FuvqC6Y-0-24" value="Review" style="swimlane;fontStyle=0;childLayout=stackLayout;horizontal=1;startSize=30;horizontalStack=0;resizeParent=1;resizeParentMax=0;resizeLast=0;collapsible=1;marginBottom=0;whiteSpace=wrap;html=1;fillColor=#ffe6cc;strokeColor=#d79b00;" vertex="1" parent="1">
          <mxGeometry x="938" y="-258" width="192" height="150" as="geometry" />
        </mxCell>
        <mxCell id="tKyiOV9jWs2FuvqC6Y-0-25" value="Review_id&amp;nbsp; &amp;nbsp; &amp;nbsp;P.K" style="text;strokeColor=none;fillColor=none;align=left;verticalAlign=middle;spacingLeft=4;spacingRight=4;overflow=hidden;points=[[0,0.5],[1,0.5]];portConstraint=eastwest;rotatable=0;whiteSpace=wrap;html=1;" vertex="1" parent="tKyiOV9jWs2FuvqC6Y-0-24">
          <mxGeometry y="30" width="192" height="30" as="geometry" />
        </mxCell>
        <mxCell id="tKyiOV9jWs2FuvqC6Y-0-26" value="Review_text" style="text;strokeColor=none;fillColor=none;align=left;verticalAlign=middle;spacingLeft=4;spacingRight=4;overflow=hidden;points=[[0,0.5],[1,0.5]];portConstraint=eastwest;rotatable=0;whiteSpace=wrap;html=1;" vertex="1" parent="tKyiOV9jWs2FuvqC6Y-0-24">
          <mxGeometry y="60" width="192" height="30" as="geometry" />
        </mxCell>
        <mxCell id="tKyiOV9jWs2FuvqC6Y-0-27" value="Review_date" style="text;strokeColor=none;fillColor=none;align=left;verticalAlign=middle;spacingLeft=4;spacingRight=4;overflow=hidden;points=[[0,0.5],[1,0.5]];portConstraint=eastwest;rotatable=0;whiteSpace=wrap;html=1;" vertex="1" parent="tKyiOV9jWs2FuvqC6Y-0-24">
          <mxGeometry y="90" width="192" height="30" as="geometry" />
        </mxCell>
        <mxCell id="tKyiOV9jWs2FuvqC6Y-0-33" value="Book_id&amp;nbsp; &amp;nbsp; &amp;nbsp;F.K" style="text;strokeColor=none;fillColor=none;align=left;verticalAlign=middle;spacingLeft=4;spacingRight=4;overflow=hidden;points=[[0,0.5],[1,0.5]];portConstraint=eastwest;rotatable=0;whiteSpace=wrap;html=1;" vertex="1" parent="tKyiOV9jWs2FuvqC6Y-0-24">
          <mxGeometry y="120" width="192" height="30" as="geometry" />
        </mxCell>
        <mxCell id="tKyiOV9jWs2FuvqC6Y-0-28" value="Reservation" style="swimlane;fontStyle=0;childLayout=stackLayout;horizontal=1;startSize=30;horizontalStack=0;resizeParent=1;resizeParentMax=0;resizeLast=0;collapsible=1;marginBottom=0;whiteSpace=wrap;html=1;fillColor=#ffe6cc;strokeColor=#d79b00;" vertex="1" parent="1">
          <mxGeometry x="1162" y="-258" width="184" height="150" as="geometry" />
        </mxCell>
        <mxCell id="tKyiOV9jWs2FuvqC6Y-0-29" value="Reservation_id&amp;nbsp; &amp;nbsp; &amp;nbsp;P.K" style="text;strokeColor=none;fillColor=none;align=left;verticalAlign=middle;spacingLeft=4;spacingRight=4;overflow=hidden;points=[[0,0.5],[1,0.5]];portConstraint=eastwest;rotatable=0;whiteSpace=wrap;html=1;" vertex="1" parent="tKyiOV9jWs2FuvqC6Y-0-28">
          <mxGeometry y="30" width="184" height="30" as="geometry" />
        </mxCell>
        <mxCell id="tKyiOV9jWs2FuvqC6Y-0-30" value="Reservation_date" style="text;strokeColor=none;fillColor=none;align=left;verticalAlign=middle;spacingLeft=4;spacingRight=4;overflow=hidden;points=[[0,0.5],[1,0.5]];portConstraint=eastwest;rotatable=0;whiteSpace=wrap;html=1;" vertex="1" parent="tKyiOV9jWs2FuvqC6Y-0-28">
          <mxGeometry y="60" width="184" height="30" as="geometry" />
        </mxCell>
        <mxCell id="tKyiOV9jWs2FuvqC6Y-0-31" value="Reservation_completion_date" style="text;strokeColor=none;fillColor=none;align=left;verticalAlign=middle;spacingLeft=4;spacingRight=4;overflow=hidden;points=[[0,0.5],[1,0.5]];portConstraint=eastwest;rotatable=0;whiteSpace=wrap;html=1;" vertex="1" parent="tKyiOV9jWs2FuvqC6Y-0-28">
          <mxGeometry y="90" width="184" height="30" as="geometry" />
        </mxCell>
        <mxCell id="tKyiOV9jWs2FuvqC6Y-0-32" value="Book_id&amp;nbsp; &amp;nbsp; &amp;nbsp;F.K" style="text;strokeColor=none;fillColor=none;align=left;verticalAlign=middle;spacingLeft=4;spacingRight=4;overflow=hidden;points=[[0,0.5],[1,0.5]];portConstraint=eastwest;rotatable=0;whiteSpace=wrap;html=1;" vertex="1" parent="tKyiOV9jWs2FuvqC6Y-0-28">
          <mxGeometry y="120" width="184" height="30" as="geometry" />
        </mxCell>
        <mxCell id="tKyiOV9jWs2FuvqC6Y-0-36" value="" style="rhombus;whiteSpace=wrap;html=1;" vertex="1" parent="1">
          <mxGeometry x="1104" y="372" width="80" height="80" as="geometry" />
        </mxCell>
        <mxCell id="tKyiOV9jWs2FuvqC6Y-0-38" value="Copy" style="swimlane;fontStyle=0;childLayout=stackLayout;horizontal=1;startSize=30;horizontalStack=0;resizeParent=1;resizeParentMax=0;resizeLast=0;collapsible=1;marginBottom=0;whiteSpace=wrap;html=1;fillColor=#ffe6cc;strokeColor=#d79b00;" vertex="1" parent="1">
          <mxGeometry x="1074" y="540" width="140" height="210" as="geometry" />
        </mxCell>
        <mxCell id="tKyiOV9jWs2FuvqC6Y-0-39" value="Copy_id&amp;nbsp; &amp;nbsp; &amp;nbsp;P.K" style="text;strokeColor=none;fillColor=none;align=left;verticalAlign=middle;spacingLeft=4;spacingRight=4;overflow=hidden;points=[[0,0.5],[1,0.5]];portConstraint=eastwest;rotatable=0;whiteSpace=wrap;html=1;" vertex="1" parent="tKyiOV9jWs2FuvqC6Y-0-38">
          <mxGeometry y="30" width="140" height="30" as="geometry" />
        </mxCell>
        <mxCell id="tKyiOV9jWs2FuvqC6Y-0-40" value="Copy_number" style="text;strokeColor=none;fillColor=none;align=left;verticalAlign=middle;spacingLeft=4;spacingRight=4;overflow=hidden;points=[[0,0.5],[1,0.5]];portConstraint=eastwest;rotatable=0;whiteSpace=wrap;html=1;" vertex="1" parent="tKyiOV9jWs2FuvqC6Y-0-38">
          <mxGeometry y="60" width="140" height="30" as="geometry" />
        </mxCell>
        <mxCell id="tKyiOV9jWs2FuvqC6Y-0-41" value="Copy_date" style="text;strokeColor=none;fillColor=none;align=left;verticalAlign=middle;spacingLeft=4;spacingRight=4;overflow=hidden;points=[[0,0.5],[1,0.5]];portConstraint=eastwest;rotatable=0;whiteSpace=wrap;html=1;" vertex="1" parent="tKyiOV9jWs2FuvqC6Y-0-38">
          <mxGeometry y="90" width="140" height="30" as="geometry" />
        </mxCell>
        <mxCell id="tKyiOV9jWs2FuvqC6Y-0-42" value="Copy_format" style="text;strokeColor=none;fillColor=none;align=left;verticalAlign=middle;spacingLeft=4;spacingRight=4;overflow=hidden;points=[[0,0.5],[1,0.5]];portConstraint=eastwest;rotatable=0;whiteSpace=wrap;html=1;" vertex="1" parent="tKyiOV9jWs2FuvqC6Y-0-38">
          <mxGeometry y="120" width="140" height="30" as="geometry" />
        </mxCell>
        <mxCell id="tKyiOV9jWs2FuvqC6Y-0-43" value="Book_id&amp;nbsp; &amp;nbsp; &amp;nbsp;F.K" style="text;strokeColor=none;fillColor=none;align=left;verticalAlign=middle;spacingLeft=4;spacingRight=4;overflow=hidden;points=[[0,0.5],[1,0.5]];portConstraint=eastwest;rotatable=0;whiteSpace=wrap;html=1;" vertex="1" parent="tKyiOV9jWs2FuvqC6Y-0-38">
          <mxGeometry y="150" width="140" height="30" as="geometry" />
        </mxCell>
        <mxCell id="tKyiOV9jWs2FuvqC6Y-0-44" value="Section_id&amp;nbsp; &amp;nbsp; &amp;nbsp;F.K" style="text;strokeColor=none;fillColor=none;align=left;verticalAlign=middle;spacingLeft=4;spacingRight=4;overflow=hidden;points=[[0,0.5],[1,0.5]];portConstraint=eastwest;rotatable=0;whiteSpace=wrap;html=1;" vertex="1" parent="tKyiOV9jWs2FuvqC6Y-0-38">
          <mxGeometry y="180" width="140" height="30" as="geometry" />
        </mxCell>
        <mxCell id="tKyiOV9jWs2FuvqC6Y-0-46" value="" style="rhombus;whiteSpace=wrap;html=1;" vertex="1" parent="1">
          <mxGeometry x="1332" y="605" width="80" height="80" as="geometry" />
        </mxCell>
        <mxCell id="tKyiOV9jWs2FuvqC6Y-0-48" value="Publication" style="swimlane;fontStyle=0;childLayout=stackLayout;horizontal=1;startSize=30;horizontalStack=0;resizeParent=1;resizeParentMax=0;resizeLast=0;collapsible=1;marginBottom=0;whiteSpace=wrap;html=1;fillColor=#ffe6cc;strokeColor=#d79b00;" vertex="1" parent="1">
          <mxGeometry x="1530" y="570" width="140" height="150" as="geometry" />
        </mxCell>
        <mxCell id="tKyiOV9jWs2FuvqC6Y-0-49" value="Publication_id&amp;nbsp; &amp;nbsp; &amp;nbsp;P.K" style="text;strokeColor=none;fillColor=none;align=left;verticalAlign=middle;spacingLeft=4;spacingRight=4;overflow=hidden;points=[[0,0.5],[1,0.5]];portConstraint=eastwest;rotatable=0;whiteSpace=wrap;html=1;" vertex="1" parent="tKyiOV9jWs2FuvqC6Y-0-48">
          <mxGeometry y="30" width="140" height="30" as="geometry" />
        </mxCell>
        <mxCell id="tKyiOV9jWs2FuvqC6Y-0-50" value="Publication_date" style="text;strokeColor=none;fillColor=none;align=left;verticalAlign=middle;spacingLeft=4;spacingRight=4;overflow=hidden;points=[[0,0.5],[1,0.5]];portConstraint=eastwest;rotatable=0;whiteSpace=wrap;html=1;" vertex="1" parent="tKyiOV9jWs2FuvqC6Y-0-48">
          <mxGeometry y="60" width="140" height="30" as="geometry" />
        </mxCell>
        <mxCell id="tKyiOV9jWs2FuvqC6Y-0-51" value="Publisher_id&amp;nbsp; &amp;nbsp; &amp;nbsp;F.K" style="text;strokeColor=none;fillColor=none;align=left;verticalAlign=middle;spacingLeft=4;spacingRight=4;overflow=hidden;points=[[0,0.5],[1,0.5]];portConstraint=eastwest;rotatable=0;whiteSpace=wrap;html=1;" vertex="1" parent="tKyiOV9jWs2FuvqC6Y-0-48">
          <mxGeometry y="90" width="140" height="30" as="geometry" />
        </mxCell>
        <mxCell id="tKyiOV9jWs2FuvqC6Y-0-52" value="Copy_id&amp;nbsp; &amp;nbsp; &amp;nbsp;F.K" style="text;strokeColor=none;fillColor=none;align=left;verticalAlign=middle;spacingLeft=4;spacingRight=4;overflow=hidden;points=[[0,0.5],[1,0.5]];portConstraint=eastwest;rotatable=0;whiteSpace=wrap;html=1;" vertex="1" parent="tKyiOV9jWs2FuvqC6Y-0-48">
          <mxGeometry y="120" width="140" height="30" as="geometry" />
        </mxCell>
        <mxCell id="tKyiOV9jWs2FuvqC6Y-0-54" value="" style="rhombus;whiteSpace=wrap;html=1;" vertex="1" parent="1">
          <mxGeometry x="1560" y="822" width="80" height="80" as="geometry" />
        </mxCell>
        <mxCell id="tKyiOV9jWs2FuvqC6Y-0-56" value="Publisher" style="swimlane;fontStyle=0;childLayout=stackLayout;horizontal=1;startSize=30;horizontalStack=0;resizeParent=1;resizeParentMax=0;resizeLast=0;collapsible=1;marginBottom=0;whiteSpace=wrap;html=1;fillColor=#ffe6cc;strokeColor=#d79b00;" vertex="1" parent="1">
          <mxGeometry x="1521" y="1002" width="158" height="150" as="geometry" />
        </mxCell>
        <mxCell id="tKyiOV9jWs2FuvqC6Y-0-57" value="Publisher_id&amp;nbsp; &amp;nbsp; &amp;nbsp;P.K" style="text;strokeColor=none;fillColor=none;align=left;verticalAlign=middle;spacingLeft=4;spacingRight=4;overflow=hidden;points=[[0,0.5],[1,0.5]];portConstraint=eastwest;rotatable=0;whiteSpace=wrap;html=1;" vertex="1" parent="tKyiOV9jWs2FuvqC6Y-0-56">
          <mxGeometry y="30" width="158" height="30" as="geometry" />
        </mxCell>
        <mxCell id="tKyiOV9jWs2FuvqC6Y-0-58" value="Publisher_name" style="text;strokeColor=none;fillColor=none;align=left;verticalAlign=middle;spacingLeft=4;spacingRight=4;overflow=hidden;points=[[0,0.5],[1,0.5]];portConstraint=eastwest;rotatable=0;whiteSpace=wrap;html=1;" vertex="1" parent="tKyiOV9jWs2FuvqC6Y-0-56">
          <mxGeometry y="60" width="158" height="30" as="geometry" />
        </mxCell>
        <mxCell id="tKyiOV9jWs2FuvqC6Y-0-59" value="Publisher_addres" style="text;strokeColor=none;fillColor=none;align=left;verticalAlign=middle;spacingLeft=4;spacingRight=4;overflow=hidden;points=[[0,0.5],[1,0.5]];portConstraint=eastwest;rotatable=0;whiteSpace=wrap;html=1;" vertex="1" parent="tKyiOV9jWs2FuvqC6Y-0-56">
          <mxGeometry y="90" width="158" height="30" as="geometry" />
        </mxCell>
        <mxCell id="tKyiOV9jWs2FuvqC6Y-0-60" value="Publisher_phone_number" style="text;strokeColor=none;fillColor=none;align=left;verticalAlign=middle;spacingLeft=4;spacingRight=4;overflow=hidden;points=[[0,0.5],[1,0.5]];portConstraint=eastwest;rotatable=0;whiteSpace=wrap;html=1;" vertex="1" parent="tKyiOV9jWs2FuvqC6Y-0-56">
          <mxGeometry y="120" width="158" height="30" as="geometry" />
        </mxCell>
        <mxCell id="tKyiOV9jWs2FuvqC6Y-0-62" value="" style="rhombus;whiteSpace=wrap;html=1;" vertex="1" parent="1">
          <mxGeometry x="1104" y="840" width="80" height="80" as="geometry" />
        </mxCell>
        <mxCell id="tKyiOV9jWs2FuvqC6Y-0-70" style="edgeStyle=orthogonalEdgeStyle;rounded=0;orthogonalLoop=1;jettySize=auto;html=1;entryX=0.5;entryY=0;entryDx=0;entryDy=0;" edge="1" parent="1" source="tKyiOV9jWs2FuvqC6Y-0-64" target="tKyiOV9jWs2FuvqC6Y-0-69">
          <mxGeometry relative="1" as="geometry">
            <Array as="points">
              <mxPoint x="1116" y="1176" />
              <mxPoint x="1034" y="1176" />
            </Array>
          </mxGeometry>
        </mxCell>
        <mxCell id="tKyiOV9jWs2FuvqC6Y-0-77" style="edgeStyle=orthogonalEdgeStyle;rounded=0;orthogonalLoop=1;jettySize=auto;html=1;entryX=0.5;entryY=0;entryDx=0;entryDy=0;" edge="1" parent="1" source="tKyiOV9jWs2FuvqC6Y-0-64" target="tKyiOV9jWs2FuvqC6Y-0-76">
          <mxGeometry relative="1" as="geometry">
            <Array as="points">
              <mxPoint x="1176" y="1176" />
              <mxPoint x="1254" y="1176" />
            </Array>
          </mxGeometry>
        </mxCell>
        <mxCell id="tKyiOV9jWs2FuvqC6Y-0-64" value="Section" style="swimlane;fontStyle=0;childLayout=stackLayout;horizontal=1;startSize=30;horizontalStack=0;resizeParent=1;resizeParentMax=0;resizeLast=0;collapsible=1;marginBottom=0;whiteSpace=wrap;html=1;fillColor=#ffe6cc;strokeColor=#d79b00;" vertex="1" parent="1">
          <mxGeometry x="1074" y="1008" width="140" height="120" as="geometry" />
        </mxCell>
        <mxCell id="tKyiOV9jWs2FuvqC6Y-0-65" value="Section_id&amp;nbsp; &amp;nbsp; &amp;nbsp;P.K" style="text;strokeColor=none;fillColor=none;align=left;verticalAlign=middle;spacingLeft=4;spacingRight=4;overflow=hidden;points=[[0,0.5],[1,0.5]];portConstraint=eastwest;rotatable=0;whiteSpace=wrap;html=1;" vertex="1" parent="tKyiOV9jWs2FuvqC6Y-0-64">
          <mxGeometry y="30" width="140" height="30" as="geometry" />
        </mxCell>
        <mxCell id="tKyiOV9jWs2FuvqC6Y-0-66" value="Section_name" style="text;strokeColor=none;fillColor=none;align=left;verticalAlign=middle;spacingLeft=4;spacingRight=4;overflow=hidden;points=[[0,0.5],[1,0.5]];portConstraint=eastwest;rotatable=0;whiteSpace=wrap;html=1;" vertex="1" parent="tKyiOV9jWs2FuvqC6Y-0-64">
          <mxGeometry y="60" width="140" height="30" as="geometry" />
        </mxCell>
        <mxCell id="tKyiOV9jWs2FuvqC6Y-0-67" value="Section_place" style="text;strokeColor=none;fillColor=none;align=left;verticalAlign=middle;spacingLeft=4;spacingRight=4;overflow=hidden;points=[[0,0.5],[1,0.5]];portConstraint=eastwest;rotatable=0;whiteSpace=wrap;html=1;" vertex="1" parent="tKyiOV9jWs2FuvqC6Y-0-64">
          <mxGeometry y="90" width="140" height="30" as="geometry" />
        </mxCell>
        <mxCell id="tKyiOV9jWs2FuvqC6Y-0-69" value="" style="rhombus;whiteSpace=wrap;html=1;" vertex="1" parent="1">
          <mxGeometry x="994" y="1224" width="80" height="80" as="geometry" />
        </mxCell>
        <mxCell id="tKyiOV9jWs2FuvqC6Y-0-71" value="Shelf" style="swimlane;fontStyle=0;childLayout=stackLayout;horizontal=1;startSize=30;horizontalStack=0;resizeParent=1;resizeParentMax=0;resizeLast=0;collapsible=1;marginBottom=0;whiteSpace=wrap;html=1;fillColor=#ffe6cc;strokeColor=#d79b00;" vertex="1" parent="1">
          <mxGeometry x="964" y="1410" width="140" height="120" as="geometry" />
        </mxCell>
        <mxCell id="tKyiOV9jWs2FuvqC6Y-0-72" value="Shelf_id&amp;nbsp; &amp;nbsp; &amp;nbsp;P.K" style="text;strokeColor=none;fillColor=none;align=left;verticalAlign=middle;spacingLeft=4;spacingRight=4;overflow=hidden;points=[[0,0.5],[1,0.5]];portConstraint=eastwest;rotatable=0;whiteSpace=wrap;html=1;" vertex="1" parent="tKyiOV9jWs2FuvqC6Y-0-71">
          <mxGeometry y="30" width="140" height="30" as="geometry" />
        </mxCell>
        <mxCell id="tKyiOV9jWs2FuvqC6Y-0-73" value="Shelf_number" style="text;strokeColor=none;fillColor=none;align=left;verticalAlign=middle;spacingLeft=4;spacingRight=4;overflow=hidden;points=[[0,0.5],[1,0.5]];portConstraint=eastwest;rotatable=0;whiteSpace=wrap;html=1;" vertex="1" parent="tKyiOV9jWs2FuvqC6Y-0-71">
          <mxGeometry y="60" width="140" height="30" as="geometry" />
        </mxCell>
        <mxCell id="tKyiOV9jWs2FuvqC6Y-0-74" value="Section_id&amp;nbsp; &amp;nbsp; &amp;nbsp;F.K" style="text;strokeColor=none;fillColor=none;align=left;verticalAlign=middle;spacingLeft=4;spacingRight=4;overflow=hidden;points=[[0,0.5],[1,0.5]];portConstraint=eastwest;rotatable=0;whiteSpace=wrap;html=1;" vertex="1" parent="tKyiOV9jWs2FuvqC6Y-0-71">
          <mxGeometry y="90" width="140" height="30" as="geometry" />
        </mxCell>
        <mxCell id="tKyiOV9jWs2FuvqC6Y-0-76" value="" style="rhombus;whiteSpace=wrap;html=1;" vertex="1" parent="1">
          <mxGeometry x="1214" y="1218" width="80" height="80" as="geometry" />
        </mxCell>
        <mxCell id="tKyiOV9jWs2FuvqC6Y-0-78" value="Leaflet" style="swimlane;fontStyle=0;childLayout=stackLayout;horizontal=1;startSize=30;horizontalStack=0;resizeParent=1;resizeParentMax=0;resizeLast=0;collapsible=1;marginBottom=0;whiteSpace=wrap;html=1;fillColor=#ffe6cc;strokeColor=#d79b00;" vertex="1" parent="1">
          <mxGeometry x="1184" y="1380" width="140" height="180" as="geometry" />
        </mxCell>
        <mxCell id="tKyiOV9jWs2FuvqC6Y-0-79" value="Leaflet_id&amp;nbsp; &amp;nbsp; &amp;nbsp;P.K" style="text;strokeColor=none;fillColor=none;align=left;verticalAlign=middle;spacingLeft=4;spacingRight=4;overflow=hidden;points=[[0,0.5],[1,0.5]];portConstraint=eastwest;rotatable=0;whiteSpace=wrap;html=1;" vertex="1" parent="tKyiOV9jWs2FuvqC6Y-0-78">
          <mxGeometry y="30" width="140" height="30" as="geometry" />
        </mxCell>
        <mxCell id="tKyiOV9jWs2FuvqC6Y-0-80" value="Leaflet_title" style="text;strokeColor=none;fillColor=none;align=left;verticalAlign=middle;spacingLeft=4;spacingRight=4;overflow=hidden;points=[[0,0.5],[1,0.5]];portConstraint=eastwest;rotatable=0;whiteSpace=wrap;html=1;" vertex="1" parent="tKyiOV9jWs2FuvqC6Y-0-78">
          <mxGeometry y="60" width="140" height="30" as="geometry" />
        </mxCell>
        <mxCell id="tKyiOV9jWs2FuvqC6Y-0-81" value="Leaflet_number" style="text;strokeColor=none;fillColor=none;align=left;verticalAlign=middle;spacingLeft=4;spacingRight=4;overflow=hidden;points=[[0,0.5],[1,0.5]];portConstraint=eastwest;rotatable=0;whiteSpace=wrap;html=1;" vertex="1" parent="tKyiOV9jWs2FuvqC6Y-0-78">
          <mxGeometry y="90" width="140" height="30" as="geometry" />
        </mxCell>
        <mxCell id="tKyiOV9jWs2FuvqC6Y-0-82" value="Leaflet_date" style="text;strokeColor=none;fillColor=none;align=left;verticalAlign=middle;spacingLeft=4;spacingRight=4;overflow=hidden;points=[[0,0.5],[1,0.5]];portConstraint=eastwest;rotatable=0;whiteSpace=wrap;html=1;" vertex="1" parent="tKyiOV9jWs2FuvqC6Y-0-78">
          <mxGeometry y="120" width="140" height="30" as="geometry" />
        </mxCell>
        <mxCell id="tKyiOV9jWs2FuvqC6Y-0-83" value="Section_id&amp;nbsp; &amp;nbsp; &amp;nbsp;F.K" style="text;strokeColor=none;fillColor=none;align=left;verticalAlign=middle;spacingLeft=4;spacingRight=4;overflow=hidden;points=[[0,0.5],[1,0.5]];portConstraint=eastwest;rotatable=0;whiteSpace=wrap;html=1;" vertex="1" parent="tKyiOV9jWs2FuvqC6Y-0-78">
          <mxGeometry y="150" width="140" height="30" as="geometry" />
        </mxCell>
        <mxCell id="tKyiOV9jWs2FuvqC6Y-0-85" value="" style="endArrow=none;dashed=1;html=1;dashPattern=1 3;strokeWidth=2;rounded=0;entryX=0;entryY=0.5;entryDx=0;entryDy=0;exitX=1;exitY=0.5;exitDx=0;exitDy=0;" edge="1" parent="1" source="kv-vLNv-k37LHlQtemCA-24" target="kv-vLNv-k37LHlQtemCA-9">
          <mxGeometry width="50" height="50" relative="1" as="geometry">
            <mxPoint x="-54" y="92" as="sourcePoint" />
            <mxPoint x="-4" y="42" as="targetPoint" />
          </mxGeometry>
        </mxCell>
        <mxCell id="tKyiOV9jWs2FuvqC6Y-0-86" value="" style="endArrow=none;dashed=1;html=1;dashPattern=1 3;strokeWidth=2;rounded=0;exitX=1;exitY=0.5;exitDx=0;exitDy=0;entryX=0;entryY=0.5;entryDx=0;entryDy=0;" edge="1" parent="1" source="kv-vLNv-k37LHlQtemCA-36" target="kv-vLNv-k37LHlQtemCA-32">
          <mxGeometry width="50" height="50" relative="1" as="geometry">
            <mxPoint x="-54" y="92" as="sourcePoint" />
            <mxPoint x="-4" y="42" as="targetPoint" />
          </mxGeometry>
        </mxCell>
        <mxCell id="tKyiOV9jWs2FuvqC6Y-0-87" value="" style="endArrow=none;html=1;rounded=0;exitX=1;exitY=0.5;exitDx=0;exitDy=0;entryX=0;entryY=0.5;entryDx=0;entryDy=0;" edge="1" parent="1" source="kv-vLNv-k37LHlQtemCA-32" target="kv-vLNv-k37LHlQtemCA-28">
          <mxGeometry width="50" height="50" relative="1" as="geometry">
            <mxPoint x="-54" y="92" as="sourcePoint" />
            <mxPoint x="-4" y="42" as="targetPoint" />
          </mxGeometry>
        </mxCell>
        <mxCell id="tKyiOV9jWs2FuvqC6Y-0-88" value="" style="endArrow=none;html=1;rounded=0;exitX=1;exitY=0.5;exitDx=0;exitDy=0;entryX=0;entryY=0.5;entryDx=0;entryDy=0;" edge="1" parent="1" source="kv-vLNv-k37LHlQtemCA-28" target="kv-vLNv-k37LHlQtemCA-24">
          <mxGeometry width="50" height="50" relative="1" as="geometry">
            <mxPoint x="-54" y="92" as="sourcePoint" />
            <mxPoint x="-4" y="42" as="targetPoint" />
          </mxGeometry>
        </mxCell>
        <mxCell id="tKyiOV9jWs2FuvqC6Y-0-90" value="" style="endArrow=none;html=1;rounded=0;entryX=0.5;entryY=0;entryDx=0;entryDy=0;exitX=0.498;exitY=1.033;exitDx=0;exitDy=0;exitPerimeter=0;" edge="1" parent="1" source="kv-vLNv-k37LHlQtemCA-14" target="kv-vLNv-k37LHlQtemCA-15">
          <mxGeometry width="50" height="50" relative="1" as="geometry">
            <mxPoint x="228" y="596" as="sourcePoint" />
            <mxPoint x="278" y="546" as="targetPoint" />
          </mxGeometry>
        </mxCell>
        <mxCell id="tKyiOV9jWs2FuvqC6Y-0-91" value="" style="endArrow=none;html=1;rounded=0;entryX=0.5;entryY=1;entryDx=0;entryDy=0;exitX=0.5;exitY=0;exitDx=0;exitDy=0;" edge="1" parent="1" source="kv-vLNv-k37LHlQtemCA-18" target="kv-vLNv-k37LHlQtemCA-15">
          <mxGeometry width="50" height="50" relative="1" as="geometry">
            <mxPoint x="228" y="596" as="sourcePoint" />
            <mxPoint x="278" y="546" as="targetPoint" />
          </mxGeometry>
        </mxCell>
        <mxCell id="tKyiOV9jWs2FuvqC6Y-0-92" value="" style="endArrow=none;dashed=1;html=1;dashPattern=1 3;strokeWidth=2;rounded=0;entryX=0;entryY=0.5;entryDx=0;entryDy=0;exitX=1;exitY=0.5;exitDx=0;exitDy=0;" edge="1" parent="1" source="kv-vLNv-k37LHlQtemCA-9" target="kv-vLNv-k37LHlQtemCA-81">
          <mxGeometry width="50" height="50" relative="1" as="geometry">
            <mxPoint x="228" y="200" as="sourcePoint" />
            <mxPoint x="278" y="150" as="targetPoint" />
          </mxGeometry>
        </mxCell>
        <mxCell id="tKyiOV9jWs2FuvqC6Y-0-93" value="" style="endArrow=none;dashed=1;html=1;dashPattern=1 3;strokeWidth=2;rounded=0;exitX=0.5;exitY=0;exitDx=0;exitDy=0;entryX=0.5;entryY=1;entryDx=0;entryDy=0;" edge="1" parent="1" source="kv-vLNv-k37LHlQtemCA-3" target="kv-vLNv-k37LHlQtemCA-40">
          <mxGeometry width="50" height="50" relative="1" as="geometry">
            <mxPoint x="270" y="-202" as="sourcePoint" />
            <mxPoint x="320" y="-252" as="targetPoint" />
          </mxGeometry>
        </mxCell>
        <mxCell id="tKyiOV9jWs2FuvqC6Y-0-94" value="" style="endArrow=none;html=1;rounded=0;exitX=0.5;exitY=0;exitDx=0;exitDy=0;" edge="1" parent="1" source="kv-vLNv-k37LHlQtemCA-40">
          <mxGeometry width="50" height="50" relative="1" as="geometry">
            <mxPoint x="270" y="-202" as="sourcePoint" />
            <mxPoint x="288" y="-234" as="targetPoint" />
          </mxGeometry>
        </mxCell>
        <mxCell id="tKyiOV9jWs2FuvqC6Y-0-95" value="" style="endArrow=none;html=1;rounded=0;exitX=0.5;exitY=0;exitDx=0;exitDy=0;entryX=0.5;entryY=1;entryDx=0;entryDy=0;" edge="1" parent="1" source="kv-vLNv-k37LHlQtemCA-42" target="kv-vLNv-k37LHlQtemCA-51">
          <mxGeometry width="50" height="50" relative="1" as="geometry">
            <mxPoint x="270" y="-400" as="sourcePoint" />
            <mxPoint x="320" y="-450" as="targetPoint" />
          </mxGeometry>
        </mxCell>
        <mxCell id="tKyiOV9jWs2FuvqC6Y-0-96" value="" style="endArrow=none;dashed=1;html=1;dashPattern=1 3;strokeWidth=2;rounded=0;exitX=0.49;exitY=1.087;exitDx=0;exitDy=0;exitPerimeter=0;entryX=0.5;entryY=0;entryDx=0;entryDy=0;" edge="1" parent="1" source="kv-vLNv-k37LHlQtemCA-58" target="kv-vLNv-k37LHlQtemCA-51">
          <mxGeometry width="50" height="50" relative="1" as="geometry">
            <mxPoint x="270" y="-604" as="sourcePoint" />
            <mxPoint x="192" y="-612" as="targetPoint" />
          </mxGeometry>
        </mxCell>
        <mxCell id="tKyiOV9jWs2FuvqC6Y-0-98" value="" style="endArrow=none;html=1;rounded=0;entryX=0;entryY=0.5;entryDx=0;entryDy=0;" edge="1" parent="1" target="kv-vLNv-k37LHlQtemCA-60">
          <mxGeometry width="50" height="50" relative="1" as="geometry">
            <mxPoint x="384" y="-744" as="sourcePoint" />
            <mxPoint x="722" y="-732" as="targetPoint" />
          </mxGeometry>
        </mxCell>
        <mxCell id="tKyiOV9jWs2FuvqC6Y-0-99" value="" style="endArrow=none;html=1;rounded=0;entryX=-0.004;entryY=1.02;entryDx=0;entryDy=0;entryPerimeter=0;exitX=1;exitY=0.5;exitDx=0;exitDy=0;" edge="1" parent="1" source="kv-vLNv-k37LHlQtemCA-60" target="kv-vLNv-k37LHlQtemCA-64">
          <mxGeometry width="50" height="50" relative="1" as="geometry">
            <mxPoint x="672" y="-682" as="sourcePoint" />
            <mxPoint x="722" y="-732" as="targetPoint" />
          </mxGeometry>
        </mxCell>
        <mxCell id="tKyiOV9jWs2FuvqC6Y-0-100" value="" style="endArrow=none;html=1;rounded=0;entryX=0;entryY=0.5;entryDx=0;entryDy=0;" edge="1" parent="1" target="kv-vLNv-k37LHlQtemCA-69">
          <mxGeometry width="50" height="50" relative="1" as="geometry">
            <mxPoint x="838" y="-744" as="sourcePoint" />
            <mxPoint x="842" y="-732" as="targetPoint" />
          </mxGeometry>
        </mxCell>
        <mxCell id="tKyiOV9jWs2FuvqC6Y-0-101" value="" style="endArrow=none;html=1;rounded=0;exitX=1;exitY=0.5;exitDx=0;exitDy=0;entryX=0;entryY=0.5;entryDx=0;entryDy=0;" edge="1" parent="1" source="kv-vLNv-k37LHlQtemCA-69" target="kv-vLNv-k37LHlQtemCA-75">
          <mxGeometry width="50" height="50" relative="1" as="geometry">
            <mxPoint x="1068" y="-682" as="sourcePoint" />
            <mxPoint x="1118" y="-732" as="targetPoint" />
          </mxGeometry>
        </mxCell>
        <mxCell id="tKyiOV9jWs2FuvqC6Y-0-102" value="" style="endArrow=none;html=1;rounded=0;exitX=1;exitY=0.5;exitDx=0;exitDy=0;entryX=0.006;entryY=-0.013;entryDx=0;entryDy=0;entryPerimeter=0;" edge="1" parent="1" source="kv-vLNv-k37LHlQtemCA-81" target="kv-vLNv-k37LHlQtemCA-86">
          <mxGeometry width="50" height="50" relative="1" as="geometry">
            <mxPoint x="750" y="200" as="sourcePoint" />
            <mxPoint x="800" y="150" as="targetPoint" />
          </mxGeometry>
        </mxCell>
        <mxCell id="tKyiOV9jWs2FuvqC6Y-0-104" value="" style="endArrow=none;html=1;rounded=0;entryX=0;entryY=0.5;entryDx=0;entryDy=0;exitX=1.006;exitY=1.04;exitDx=0;exitDy=0;exitPerimeter=0;" edge="1" parent="1" source="kv-vLNv-k37LHlQtemCA-85" target="kv-vLNv-k37LHlQtemCA-91">
          <mxGeometry width="50" height="50" relative="1" as="geometry">
            <mxPoint x="750" y="200" as="sourcePoint" />
            <mxPoint x="800" y="150" as="targetPoint" />
          </mxGeometry>
        </mxCell>
        <mxCell id="tKyiOV9jWs2FuvqC6Y-0-105" value="" style="endArrow=none;dashed=1;html=1;dashPattern=1 3;strokeWidth=2;rounded=0;exitX=1;exitY=0.5;exitDx=0;exitDy=0;entryX=0;entryY=0.5;entryDx=0;entryDy=0;" edge="1" parent="1" source="kv-vLNv-k37LHlQtemCA-91" target="kv-vLNv-k37LHlQtemCA-98">
          <mxGeometry width="50" height="50" relative="1" as="geometry">
            <mxPoint x="990" y="200" as="sourcePoint" />
            <mxPoint x="1040" y="150" as="targetPoint" />
          </mxGeometry>
        </mxCell>
        <mxCell id="tKyiOV9jWs2FuvqC6Y-0-106" value="" style="endArrow=none;dashed=1;html=1;dashPattern=1 3;strokeWidth=2;rounded=0;entryX=0.497;entryY=1.08;entryDx=0;entryDy=0;entryPerimeter=0;exitX=0.5;exitY=0;exitDx=0;exitDy=0;" edge="1" parent="1" source="tKyiOV9jWs2FuvqC6Y-0-1" target="kv-vLNv-k37LHlQtemCA-88">
          <mxGeometry width="50" height="50" relative="1" as="geometry">
            <mxPoint x="870" y="524" as="sourcePoint" />
            <mxPoint x="920" y="474" as="targetPoint" />
          </mxGeometry>
        </mxCell>
        <mxCell id="tKyiOV9jWs2FuvqC6Y-0-107" value="" style="endArrow=none;html=1;rounded=0;exitX=0.5;exitY=0;exitDx=0;exitDy=0;entryX=0.5;entryY=1;entryDx=0;entryDy=0;" edge="1" parent="1" source="tKyiOV9jWs2FuvqC6Y-0-3" target="tKyiOV9jWs2FuvqC6Y-0-1">
          <mxGeometry width="50" height="50" relative="1" as="geometry">
            <mxPoint x="870" y="524" as="sourcePoint" />
            <mxPoint x="920" y="474" as="targetPoint" />
          </mxGeometry>
        </mxCell>
        <mxCell id="tKyiOV9jWs2FuvqC6Y-0-109" value="" style="endArrow=none;html=1;rounded=0;entryX=0.497;entryY=0.98;entryDx=0;entryDy=0;entryPerimeter=0;exitX=0.5;exitY=0;exitDx=0;exitDy=0;" edge="1" parent="1" source="tKyiOV9jWs2FuvqC6Y-0-10" target="tKyiOV9jWs2FuvqC6Y-0-8">
          <mxGeometry width="50" height="50" relative="1" as="geometry">
            <mxPoint x="870" y="722" as="sourcePoint" />
            <mxPoint x="920" y="672" as="targetPoint" />
          </mxGeometry>
        </mxCell>
        <mxCell id="tKyiOV9jWs2FuvqC6Y-0-110" value="" style="endArrow=none;html=1;rounded=0;exitX=0.5;exitY=0;exitDx=0;exitDy=0;entryX=0.5;entryY=1;entryDx=0;entryDy=0;" edge="1" parent="1" source="tKyiOV9jWs2FuvqC6Y-0-12" target="tKyiOV9jWs2FuvqC6Y-0-10">
          <mxGeometry width="50" height="50" relative="1" as="geometry">
            <mxPoint x="792" y="936" as="sourcePoint" />
            <mxPoint x="920" y="876" as="targetPoint" />
          </mxGeometry>
        </mxCell>
        <mxCell id="tKyiOV9jWs2FuvqC6Y-0-111" value="" style="endArrow=none;html=1;rounded=0;entryX=0.504;entryY=0.993;entryDx=0;entryDy=0;entryPerimeter=0;" edge="1" parent="1" target="tKyiOV9jWs2FuvqC6Y-0-33">
          <mxGeometry width="50" height="50" relative="1" as="geometry">
            <mxPoint x="1035" y="-30" as="sourcePoint" />
            <mxPoint x="1082" y="-42" as="targetPoint" />
          </mxGeometry>
        </mxCell>
        <mxCell id="tKyiOV9jWs2FuvqC6Y-0-112" value="" style="endArrow=none;html=1;rounded=0;entryX=0.496;entryY=1.02;entryDx=0;entryDy=0;entryPerimeter=0;exitX=0.5;exitY=0;exitDx=0;exitDy=0;" edge="1" parent="1" source="tKyiOV9jWs2FuvqC6Y-0-18" target="tKyiOV9jWs2FuvqC6Y-0-32">
          <mxGeometry width="50" height="50" relative="1" as="geometry">
            <mxPoint x="1032" y="8" as="sourcePoint" />
            <mxPoint x="1082" y="-42" as="targetPoint" />
          </mxGeometry>
        </mxCell>
        <mxCell id="tKyiOV9jWs2FuvqC6Y-0-113" value="" style="rhombus;whiteSpace=wrap;html=1;" vertex="1" parent="1">
          <mxGeometry x="1728" y="149" width="80" height="80" as="geometry" />
        </mxCell>
        <mxCell id="tKyiOV9jWs2FuvqC6Y-0-114" value="" style="endArrow=none;html=1;rounded=0;entryX=0;entryY=0.5;entryDx=0;entryDy=0;exitX=1;exitY=0.013;exitDx=0;exitDy=0;exitPerimeter=0;" edge="1" parent="1" source="kv-vLNv-k37LHlQtemCA-104" target="tKyiOV9jWs2FuvqC6Y-0-113">
          <mxGeometry width="50" height="50" relative="1" as="geometry">
            <mxPoint x="1614" y="189" as="sourcePoint" />
            <mxPoint x="1562" y="156" as="targetPoint" />
          </mxGeometry>
        </mxCell>
        <mxCell id="tKyiOV9jWs2FuvqC6Y-0-115" value="Author" style="swimlane;fontStyle=0;childLayout=stackLayout;horizontal=1;startSize=30;horizontalStack=0;resizeParent=1;resizeParentMax=0;resizeLast=0;collapsible=1;marginBottom=0;whiteSpace=wrap;html=1;fillColor=#ffe6cc;strokeColor=#d79b00;" vertex="1" parent="1">
          <mxGeometry x="1926" y="114" width="140" height="150" as="geometry" />
        </mxCell>
        <mxCell id="tKyiOV9jWs2FuvqC6Y-0-116" value="Author_id&amp;nbsp; &amp;nbsp; &amp;nbsp;P.K" style="text;strokeColor=none;fillColor=none;align=left;verticalAlign=middle;spacingLeft=4;spacingRight=4;overflow=hidden;points=[[0,0.5],[1,0.5]];portConstraint=eastwest;rotatable=0;whiteSpace=wrap;html=1;" vertex="1" parent="tKyiOV9jWs2FuvqC6Y-0-115">
          <mxGeometry y="30" width="140" height="30" as="geometry" />
        </mxCell>
        <mxCell id="tKyiOV9jWs2FuvqC6Y-0-117" value="Author_first_name" style="text;strokeColor=none;fillColor=none;align=left;verticalAlign=middle;spacingLeft=4;spacingRight=4;overflow=hidden;points=[[0,0.5],[1,0.5]];portConstraint=eastwest;rotatable=0;whiteSpace=wrap;html=1;" vertex="1" parent="tKyiOV9jWs2FuvqC6Y-0-115">
          <mxGeometry y="60" width="140" height="30" as="geometry" />
        </mxCell>
        <mxCell id="tKyiOV9jWs2FuvqC6Y-0-118" value="Author_last_name" style="text;strokeColor=none;fillColor=none;align=left;verticalAlign=middle;spacingLeft=4;spacingRight=4;overflow=hidden;points=[[0,0.5],[1,0.5]];portConstraint=eastwest;rotatable=0;whiteSpace=wrap;html=1;" vertex="1" parent="tKyiOV9jWs2FuvqC6Y-0-115">
          <mxGeometry y="90" width="140" height="30" as="geometry" />
        </mxCell>
        <mxCell id="tKyiOV9jWs2FuvqC6Y-0-119" value="Author_nation" style="text;strokeColor=none;fillColor=none;align=left;verticalAlign=middle;spacingLeft=4;spacingRight=4;overflow=hidden;points=[[0,0.5],[1,0.5]];portConstraint=eastwest;rotatable=0;whiteSpace=wrap;html=1;" vertex="1" parent="tKyiOV9jWs2FuvqC6Y-0-115">
          <mxGeometry y="120" width="140" height="30" as="geometry" />
        </mxCell>
        <mxCell id="tKyiOV9jWs2FuvqC6Y-0-120" value="" style="endArrow=none;html=1;rounded=0;entryX=0;entryY=0.5;entryDx=0;entryDy=0;exitX=1;exitY=0.5;exitDx=0;exitDy=0;" edge="1" parent="1" source="tKyiOV9jWs2FuvqC6Y-0-113" target="tKyiOV9jWs2FuvqC6Y-0-117">
          <mxGeometry width="50" height="50" relative="1" as="geometry">
            <mxPoint x="1794" y="206" as="sourcePoint" />
            <mxPoint x="1844" y="156" as="targetPoint" />
          </mxGeometry>
        </mxCell>
        <mxCell id="tKyiOV9jWs2FuvqC6Y-0-121" value="" style="endArrow=none;html=1;rounded=0;exitX=1;exitY=0.5;exitDx=0;exitDy=0;" edge="1" parent="1" source="kv-vLNv-k37LHlQtemCA-100">
          <mxGeometry width="50" height="50" relative="1" as="geometry">
            <mxPoint x="1554" y="206" as="sourcePoint" />
            <mxPoint x="1470" y="188" as="targetPoint" />
          </mxGeometry>
        </mxCell>
        <mxCell id="tKyiOV9jWs2FuvqC6Y-0-122" value="" style="endArrow=none;html=1;rounded=0;exitX=1;exitY=0.5;exitDx=0;exitDy=0;" edge="1" parent="1" source="kv-vLNv-k37LHlQtemCA-98" target="kv-vLNv-k37LHlQtemCA-100">
          <mxGeometry width="50" height="50" relative="1" as="geometry">
            <mxPoint x="1194" y="206" as="sourcePoint" />
            <mxPoint x="1244" y="156" as="targetPoint" />
          </mxGeometry>
        </mxCell>
        <mxCell id="tKyiOV9jWs2FuvqC6Y-0-123" value="" style="endArrow=none;html=1;rounded=0;entryX=0.5;entryY=1;entryDx=0;entryDy=0;exitX=0.5;exitY=0;exitDx=0;exitDy=0;" edge="1" parent="1" source="tKyiOV9jWs2FuvqC6Y-0-38" target="tKyiOV9jWs2FuvqC6Y-0-36">
          <mxGeometry width="50" height="50" relative="1" as="geometry">
            <mxPoint x="1152" y="524" as="sourcePoint" />
            <mxPoint x="1202" y="474" as="targetPoint" />
          </mxGeometry>
        </mxCell>
        <mxCell id="tKyiOV9jWs2FuvqC6Y-0-124" value="" style="endArrow=none;html=1;rounded=0;exitX=0.5;exitY=0;exitDx=0;exitDy=0;entryX=0.491;entryY=0.994;entryDx=0;entryDy=0;entryPerimeter=0;" edge="1" parent="1" source="tKyiOV9jWs2FuvqC6Y-0-36" target="kv-vLNv-k37LHlQtemCA-94">
          <mxGeometry width="50" height="50" relative="1" as="geometry">
            <mxPoint x="1152" y="326" as="sourcePoint" />
            <mxPoint x="1170" y="318" as="targetPoint" />
          </mxGeometry>
        </mxCell>
        <mxCell id="tKyiOV9jWs2FuvqC6Y-0-126" value="" style="endArrow=none;html=1;rounded=0;entryX=0.5;entryY=0;entryDx=0;entryDy=0;exitX=0.497;exitY=1.033;exitDx=0;exitDy=0;exitPerimeter=0;" edge="1" parent="1" source="tKyiOV9jWs2FuvqC6Y-0-44" target="tKyiOV9jWs2FuvqC6Y-0-62">
          <mxGeometry width="50" height="50" relative="1" as="geometry">
            <mxPoint x="1152" y="926" as="sourcePoint" />
            <mxPoint x="1202" y="876" as="targetPoint" />
          </mxGeometry>
        </mxCell>
        <mxCell id="tKyiOV9jWs2FuvqC6Y-0-127" value="" style="endArrow=none;html=1;rounded=0;exitX=0.5;exitY=1;exitDx=0;exitDy=0;entryX=0.5;entryY=0;entryDx=0;entryDy=0;" edge="1" parent="1" source="tKyiOV9jWs2FuvqC6Y-0-62" target="tKyiOV9jWs2FuvqC6Y-0-64">
          <mxGeometry width="50" height="50" relative="1" as="geometry">
            <mxPoint x="1152" y="926" as="sourcePoint" />
            <mxPoint x="1202" y="876" as="targetPoint" />
          </mxGeometry>
        </mxCell>
        <mxCell id="tKyiOV9jWs2FuvqC6Y-0-128" value="" style="endArrow=none;html=1;rounded=0;exitX=0.5;exitY=1;exitDx=0;exitDy=0;entryX=0.5;entryY=0;entryDx=0;entryDy=0;" edge="1" parent="1" source="tKyiOV9jWs2FuvqC6Y-0-69" target="tKyiOV9jWs2FuvqC6Y-0-71">
          <mxGeometry width="50" height="50" relative="1" as="geometry">
            <mxPoint x="1152" y="1286" as="sourcePoint" />
            <mxPoint x="1202" y="1236" as="targetPoint" />
          </mxGeometry>
        </mxCell>
        <mxCell id="tKyiOV9jWs2FuvqC6Y-0-129" value="" style="endArrow=none;html=1;rounded=0;entryX=0.5;entryY=1;entryDx=0;entryDy=0;exitX=0.5;exitY=0;exitDx=0;exitDy=0;" edge="1" parent="1" source="tKyiOV9jWs2FuvqC6Y-0-78" target="tKyiOV9jWs2FuvqC6Y-0-76">
          <mxGeometry width="50" height="50" relative="1" as="geometry">
            <mxPoint x="1152" y="1286" as="sourcePoint" />
            <mxPoint x="1202" y="1236" as="targetPoint" />
          </mxGeometry>
        </mxCell>
        <mxCell id="tKyiOV9jWs2FuvqC6Y-0-130" value="" style="endArrow=none;html=1;rounded=0;exitX=1;exitY=0.5;exitDx=0;exitDy=0;entryX=0;entryY=0.5;entryDx=0;entryDy=0;" edge="1" parent="1" source="tKyiOV9jWs2FuvqC6Y-0-46" target="tKyiOV9jWs2FuvqC6Y-0-50">
          <mxGeometry width="50" height="50" relative="1" as="geometry">
            <mxPoint x="1392" y="644" as="sourcePoint" />
            <mxPoint x="1442" y="594" as="targetPoint" />
          </mxGeometry>
        </mxCell>
        <mxCell id="tKyiOV9jWs2FuvqC6Y-0-131" value="" style="endArrow=none;html=1;rounded=0;exitX=0;exitY=0.5;exitDx=0;exitDy=0;entryX=1;entryY=0.5;entryDx=0;entryDy=0;" edge="1" parent="1" source="tKyiOV9jWs2FuvqC6Y-0-46" target="tKyiOV9jWs2FuvqC6Y-0-41">
          <mxGeometry width="50" height="50" relative="1" as="geometry">
            <mxPoint x="1392" y="644" as="sourcePoint" />
            <mxPoint x="1442" y="594" as="targetPoint" />
          </mxGeometry>
        </mxCell>
        <mxCell id="tKyiOV9jWs2FuvqC6Y-0-132" value="" style="endArrow=none;html=1;rounded=0;entryX=0.5;entryY=0;entryDx=0;entryDy=0;exitX=0.503;exitY=0.993;exitDx=0;exitDy=0;exitPerimeter=0;" edge="1" parent="1" source="tKyiOV9jWs2FuvqC6Y-0-52" target="tKyiOV9jWs2FuvqC6Y-0-54">
          <mxGeometry width="50" height="50" relative="1" as="geometry">
            <mxPoint x="1392" y="848" as="sourcePoint" />
            <mxPoint x="1442" y="798" as="targetPoint" />
          </mxGeometry>
        </mxCell>
        <mxCell id="tKyiOV9jWs2FuvqC6Y-0-133" value="" style="endArrow=none;html=1;rounded=0;entryX=0.5;entryY=1;entryDx=0;entryDy=0;exitX=0.5;exitY=0;exitDx=0;exitDy=0;" edge="1" parent="1" source="tKyiOV9jWs2FuvqC6Y-0-56" target="tKyiOV9jWs2FuvqC6Y-0-54">
          <mxGeometry width="50" height="50" relative="1" as="geometry">
            <mxPoint x="1392" y="848" as="sourcePoint" />
            <mxPoint x="1442" y="798" as="targetPoint" />
          </mxGeometry>
        </mxCell>
        <mxCell id="tKyiOV9jWs2FuvqC6Y-0-140" value="n" style="text;html=1;align=center;verticalAlign=middle;whiteSpace=wrap;rounded=0;" vertex="1" parent="1">
          <mxGeometry x="-78" y="162" width="60" height="30" as="geometry" />
        </mxCell>
        <mxCell id="tKyiOV9jWs2FuvqC6Y-0-141" value="n" style="text;html=1;align=center;verticalAlign=middle;whiteSpace=wrap;rounded=0;" vertex="1" parent="1">
          <mxGeometry x="-252" y="162" width="60" height="30" as="geometry" />
        </mxCell>
        <mxCell id="tKyiOV9jWs2FuvqC6Y-0-142" value="n" style="text;html=1;align=center;verticalAlign=middle;whiteSpace=wrap;rounded=0;rotation=90;" vertex="1" parent="1">
          <mxGeometry x="270" y="-234" width="60" height="30" as="geometry" />
        </mxCell>
        <mxCell id="tKyiOV9jWs2FuvqC6Y-0-144" value="n" style="text;html=1;align=center;verticalAlign=middle;whiteSpace=wrap;rounded=0;rotation=90;" vertex="1" parent="1">
          <mxGeometry x="270" y="-420" width="60" height="30" as="geometry" />
        </mxCell>
        <mxCell id="tKyiOV9jWs2FuvqC6Y-0-145" value="n" style="text;html=1;align=center;verticalAlign=middle;whiteSpace=wrap;rounded=0;" vertex="1" parent="1">
          <mxGeometry x="606" y="-774" width="60" height="30" as="geometry" />
        </mxCell>
        <mxCell id="tKyiOV9jWs2FuvqC6Y-0-146" value="n" style="text;html=1;align=center;verticalAlign=middle;whiteSpace=wrap;rounded=0;" vertex="1" parent="1">
          <mxGeometry x="828" y="-774" width="60" height="30" as="geometry" />
        </mxCell>
        <mxCell id="tKyiOV9jWs2FuvqC6Y-0-147" value="1" style="text;html=1;align=center;verticalAlign=middle;whiteSpace=wrap;rounded=0;" vertex="1" parent="1">
          <mxGeometry x="150" y="162" width="60" height="30" as="geometry" />
        </mxCell>
        <mxCell id="tKyiOV9jWs2FuvqC6Y-0-148" value="1" style="text;html=1;align=center;verticalAlign=middle;whiteSpace=wrap;rounded=0;" vertex="1" parent="1">
          <mxGeometry x="-450" y="162" width="60" height="30" as="geometry" />
        </mxCell>
        <mxCell id="tKyiOV9jWs2FuvqC6Y-0-149" value="1" style="text;html=1;align=center;verticalAlign=middle;whiteSpace=wrap;rounded=0;rotation=90;" vertex="1" parent="1">
          <mxGeometry x="270" y="-6" width="60" height="30" as="geometry" />
        </mxCell>
        <mxCell id="tKyiOV9jWs2FuvqC6Y-0-150" value="1" style="text;html=1;align=center;verticalAlign=middle;whiteSpace=wrap;rounded=0;rotation=90;" vertex="1" parent="1">
          <mxGeometry x="268" y="-654" width="60" height="30" as="geometry" />
        </mxCell>
        <mxCell id="tKyiOV9jWs2FuvqC6Y-0-151" value="1" style="text;html=1;align=center;verticalAlign=middle;whiteSpace=wrap;rounded=0;" vertex="1" parent="1">
          <mxGeometry x="366" y="-774" width="60" height="30" as="geometry" />
        </mxCell>
        <mxCell id="tKyiOV9jWs2FuvqC6Y-0-152" value="1" style="text;html=1;align=center;verticalAlign=middle;whiteSpace=wrap;rounded=0;" vertex="1" parent="1">
          <mxGeometry x="1074" y="-774" width="60" height="30" as="geometry" />
        </mxCell>
        <mxCell id="tKyiOV9jWs2FuvqC6Y-0-153" value="n" style="text;html=1;align=center;verticalAlign=middle;whiteSpace=wrap;rounded=0;rotation=90;" vertex="1" parent="1">
          <mxGeometry x="246" y="354" width="60" height="30" as="geometry" />
        </mxCell>
        <mxCell id="tKyiOV9jWs2FuvqC6Y-0-155" value="1" style="text;html=1;align=center;verticalAlign=middle;whiteSpace=wrap;rounded=0;rotation=90;" vertex="1" parent="1">
          <mxGeometry x="246" y="510" width="60" height="30" as="geometry" />
        </mxCell>
        <mxCell id="tKyiOV9jWs2FuvqC6Y-0-156" value="1" style="text;html=1;align=center;verticalAlign=middle;whiteSpace=wrap;rounded=0;" vertex="1" parent="1">
          <mxGeometry x="365" y="162" width="60" height="30" as="geometry" />
        </mxCell>
        <mxCell id="tKyiOV9jWs2FuvqC6Y-0-158" value="n" style="text;html=1;align=center;verticalAlign=middle;whiteSpace=wrap;rounded=0;" vertex="1" parent="1">
          <mxGeometry x="606" y="162" width="60" height="30" as="geometry" />
        </mxCell>
        <mxCell id="tKyiOV9jWs2FuvqC6Y-0-159" value="n" style="text;html=1;align=center;verticalAlign=middle;whiteSpace=wrap;rounded=0;" vertex="1" parent="1">
          <mxGeometry x="780" y="162" width="60" height="30" as="geometry" />
        </mxCell>
        <mxCell id="tKyiOV9jWs2FuvqC6Y-0-160" value="1" style="text;html=1;align=center;verticalAlign=middle;whiteSpace=wrap;rounded=0;rotation=90;" vertex="1" parent="1">
          <mxGeometry x="678" y="279" width="60" height="30" as="geometry" />
        </mxCell>
        <mxCell id="tKyiOV9jWs2FuvqC6Y-0-161" value="1,2" style="text;html=1;align=center;verticalAlign=middle;whiteSpace=wrap;rounded=0;rotation=90;" vertex="1" parent="1">
          <mxGeometry x="678" y="510" width="60" height="30" as="geometry" />
        </mxCell>
        <mxCell id="tKyiOV9jWs2FuvqC6Y-0-163" value="1" style="text;html=1;align=center;verticalAlign=middle;whiteSpace=wrap;rounded=0;rotation=90;" vertex="1" parent="1">
          <mxGeometry x="678" y="726" width="60" height="30" as="geometry" />
        </mxCell>
        <mxCell id="tKyiOV9jWs2FuvqC6Y-0-164" value="1" style="text;html=1;align=center;verticalAlign=middle;whiteSpace=wrap;rounded=0;rotation=90;" vertex="1" parent="1">
          <mxGeometry x="678" y="942" width="60" height="30" as="geometry" />
        </mxCell>
        <mxCell id="tKyiOV9jWs2FuvqC6Y-0-165" value="1" style="text;html=1;align=center;verticalAlign=middle;whiteSpace=wrap;rounded=0;" vertex="1" parent="1">
          <mxGeometry x="1032" y="162" width="60" height="30" as="geometry" />
        </mxCell>
        <mxCell id="tKyiOV9jWs2FuvqC6Y-0-166" value="1" style="text;html=1;align=center;verticalAlign=middle;whiteSpace=wrap;rounded=0;rotation=90;" vertex="1" parent="1">
          <mxGeometry x="1070" y="108" width="60" height="30" as="geometry" />
        </mxCell>
        <mxCell id="tKyiOV9jWs2FuvqC6Y-0-168" value="n" style="text;html=1;align=center;verticalAlign=middle;whiteSpace=wrap;rounded=0;rotation=90;" vertex="1" parent="1">
          <mxGeometry x="990" y="-102" width="60" height="30" as="geometry" />
        </mxCell>
        <mxCell id="tKyiOV9jWs2FuvqC6Y-0-169" value="n" style="text;html=1;align=center;verticalAlign=middle;whiteSpace=wrap;rounded=0;rotation=90;" vertex="1" parent="1">
          <mxGeometry x="1206" y="-108" width="60" height="30" as="geometry" />
        </mxCell>
        <mxCell id="tKyiOV9jWs2FuvqC6Y-0-170" value="1" style="text;html=1;align=center;verticalAlign=middle;whiteSpace=wrap;rounded=0;rotation=90;" vertex="1" parent="1">
          <mxGeometry x="1164" y="108" width="60" height="30" as="geometry" />
        </mxCell>
        <mxCell id="tKyiOV9jWs2FuvqC6Y-0-171" value="1" style="text;html=1;align=center;verticalAlign=middle;whiteSpace=wrap;rounded=0;" vertex="1" parent="1">
          <mxGeometry x="1200" y="162" width="60" height="30" as="geometry" />
        </mxCell>
        <mxCell id="tKyiOV9jWs2FuvqC6Y-0-172" value="n" style="text;html=1;align=center;verticalAlign=middle;whiteSpace=wrap;rounded=0;" vertex="1" parent="1">
          <mxGeometry x="1422" y="162" width="60" height="30" as="geometry" />
        </mxCell>
        <mxCell id="tKyiOV9jWs2FuvqC6Y-0-173" value="n" style="text;html=1;align=center;verticalAlign=middle;whiteSpace=wrap;rounded=0;" vertex="1" parent="1">
          <mxGeometry x="1596" y="162" width="60" height="30" as="geometry" />
        </mxCell>
        <mxCell id="tKyiOV9jWs2FuvqC6Y-0-174" value="1" style="text;html=1;align=center;verticalAlign=middle;whiteSpace=wrap;rounded=0;" vertex="1" parent="1">
          <mxGeometry x="1878" y="162" width="60" height="30" as="geometry" />
        </mxCell>
        <mxCell id="tKyiOV9jWs2FuvqC6Y-0-175" value="1" style="text;html=1;align=center;verticalAlign=middle;whiteSpace=wrap;rounded=0;rotation=90;" vertex="1" parent="1">
          <mxGeometry x="1098" y="240" width="60" height="30" as="geometry" />
        </mxCell>
        <mxCell id="tKyiOV9jWs2FuvqC6Y-0-176" value="n" style="text;html=1;align=center;verticalAlign=middle;whiteSpace=wrap;rounded=0;rotation=90;" vertex="1" parent="1">
          <mxGeometry x="1098" y="504" width="60" height="30" as="geometry" />
        </mxCell>
        <mxCell id="tKyiOV9jWs2FuvqC6Y-0-177" value="n" style="text;html=1;align=center;verticalAlign=middle;whiteSpace=wrap;rounded=0;rotation=90;" vertex="1" parent="1">
          <mxGeometry x="1098" y="756" width="60" height="30" as="geometry" />
        </mxCell>
        <mxCell id="tKyiOV9jWs2FuvqC6Y-0-178" value="1" style="text;html=1;align=center;verticalAlign=middle;whiteSpace=wrap;rounded=0;rotation=90;" vertex="1" parent="1">
          <mxGeometry x="1102" y="972" width="60" height="30" as="geometry" />
        </mxCell>
        <mxCell id="tKyiOV9jWs2FuvqC6Y-0-179" value="1" style="text;html=1;align=center;verticalAlign=middle;whiteSpace=wrap;rounded=0;rotation=90;" vertex="1" parent="1">
          <mxGeometry x="1070" y="1128" width="60" height="30" as="geometry" />
        </mxCell>
        <mxCell id="tKyiOV9jWs2FuvqC6Y-0-180" value="1" style="text;html=1;align=center;verticalAlign=middle;whiteSpace=wrap;rounded=0;rotation=90;" vertex="1" parent="1">
          <mxGeometry x="1158" y="1128" width="60" height="30" as="geometry" />
        </mxCell>
        <mxCell id="tKyiOV9jWs2FuvqC6Y-0-181" value="n" style="text;html=1;align=center;verticalAlign=middle;whiteSpace=wrap;rounded=0;rotation=90;" vertex="1" parent="1">
          <mxGeometry x="990" y="1374" width="60" height="30" as="geometry" />
        </mxCell>
        <mxCell id="tKyiOV9jWs2FuvqC6Y-0-182" value="n" style="text;html=1;align=center;verticalAlign=middle;whiteSpace=wrap;rounded=0;rotation=90;" vertex="1" parent="1">
          <mxGeometry x="1215" y="1344" width="60" height="30" as="geometry" />
        </mxCell>
        <mxCell id="tKyiOV9jWs2FuvqC6Y-0-184" value="1" style="text;html=1;align=center;verticalAlign=middle;whiteSpace=wrap;rounded=0;" vertex="1" parent="1">
          <mxGeometry x="1206" y="612" width="60" height="30" as="geometry" />
        </mxCell>
        <mxCell id="tKyiOV9jWs2FuvqC6Y-0-185" value="n" style="text;html=1;align=center;verticalAlign=middle;whiteSpace=wrap;rounded=0;" vertex="1" parent="1">
          <mxGeometry x="1482" y="618" width="60" height="30" as="geometry" />
        </mxCell>
        <mxCell id="tKyiOV9jWs2FuvqC6Y-0-186" value="n" style="text;html=1;align=center;verticalAlign=middle;whiteSpace=wrap;rounded=0;rotation=90;" vertex="1" parent="1">
          <mxGeometry x="1560" y="726" width="60" height="30" as="geometry" />
        </mxCell>
        <mxCell id="tKyiOV9jWs2FuvqC6Y-0-187" value="1" style="text;html=1;align=center;verticalAlign=middle;whiteSpace=wrap;rounded=0;rotation=90;" vertex="1" parent="1">
          <mxGeometry x="1554" y="966" width="60" height="30" as="geometry" />
        </mxCell>
      </root>
    </mxGraphModel>
  </diagram>
  <diagram id="81ZJhN9mSof0g6DTaYpW" name="Page-2">
    <mxGraphModel grid="1" page="1" gridSize="10" guides="1" tooltips="1" connect="1" arrows="1" fold="1" pageScale="1" pageWidth="850" pageHeight="1100" math="0" shadow="0">
      <root>
        <mxCell id="0" />
        <mxCell id="1" parent="0" />
      </root>
    </mxGraphModel>
  </diagram>
  <diagram id="srrHDqohk3HiQTt6EBIj" name="Page-3">
    <mxGraphModel dx="1044" dy="634" grid="1" gridSize="10" guides="1" tooltips="1" connect="1" arrows="1" fold="1" page="1" pageScale="1" pageWidth="850" pageHeight="1100" math="0" shadow="0" adaptiveColors="simple">
      <root>
        <mxCell id="0" />
        <mxCell id="1" parent="0" />
        <mxCell id="e2BKSe0UK7RhTK9piuV3-7" value="&amp;nbsp;libraryMember" style="swimlane;fontStyle=0;childLayout=stackLayout;horizontal=1;startSize=30;horizontalStack=0;resizeParent=1;resizeParentMax=0;resizeLast=0;collapsible=1;marginBottom=0;whiteSpace=wrap;html=1;strokeColor=#d79b00;fillColor=#ffe6cc;rotation=0;flipH=1;flipV=0;direction=east;rounded=1;" vertex="1" parent="1">
          <mxGeometry x="120" y="200" width="200" height="330" as="geometry">
            <mxRectangle x="200" y="390" width="120" height="30" as="alternateBounds" />
          </mxGeometry>
        </mxCell>
        <mxCell id="e2BKSe0UK7RhTK9piuV3-8" value="librarymember_id&amp;nbsp; &amp;nbsp; &amp;nbsp; &amp;nbsp;P.K" style="text;strokeColor=none;fillColor=none;align=left;verticalAlign=middle;spacingLeft=4;spacingRight=4;overflow=hidden;points=[[0,0.5],[1,0.5]];portConstraint=eastwest;rotatable=0;whiteSpace=wrap;html=1;fontColor=#143642;rounded=1;" vertex="1" parent="e2BKSe0UK7RhTK9piuV3-7">
          <mxGeometry y="30" width="200" height="30" as="geometry" />
        </mxCell>
        <mxCell id="e2BKSe0UK7RhTK9piuV3-9" value="libraryMember_first_name" style="text;strokeColor=none;fillColor=none;align=left;verticalAlign=middle;spacingLeft=4;spacingRight=4;overflow=hidden;points=[[0,0.5],[1,0.5]];portConstraint=eastwest;rotatable=0;whiteSpace=wrap;html=1;fontColor=#143642;rounded=1;" vertex="1" parent="e2BKSe0UK7RhTK9piuV3-7">
          <mxGeometry y="60" width="200" height="30" as="geometry" />
        </mxCell>
        <mxCell id="e2BKSe0UK7RhTK9piuV3-10" value="libraryMember_last_name" style="text;strokeColor=none;fillColor=none;align=left;verticalAlign=middle;spacingLeft=4;spacingRight=4;overflow=hidden;points=[[0,0.5],[1,0.5]];portConstraint=eastwest;rotatable=0;whiteSpace=wrap;html=1;fontColor=#143642;rounded=1;" vertex="1" parent="e2BKSe0UK7RhTK9piuV3-7">
          <mxGeometry y="90" width="200" height="30" as="geometry" />
        </mxCell>
        <mxCell id="e2BKSe0UK7RhTK9piuV3-20" value="libraryMember_nation_id" style="text;strokeColor=none;fillColor=none;align=left;verticalAlign=middle;spacingLeft=4;spacingRight=4;overflow=hidden;points=[[0,0.5],[1,0.5]];portConstraint=eastwest;rotatable=0;whiteSpace=wrap;html=1;fontColor=#143642;rounded=1;" vertex="1" parent="e2BKSe0UK7RhTK9piuV3-7">
          <mxGeometry y="120" width="200" height="30" as="geometry" />
        </mxCell>
        <mxCell id="e2BKSe0UK7RhTK9piuV3-21" value="libraryMember_berth_date" style="text;strokeColor=none;fillColor=none;align=left;verticalAlign=middle;spacingLeft=4;spacingRight=4;overflow=hidden;points=[[0,0.5],[1,0.5]];portConstraint=eastwest;rotatable=0;whiteSpace=wrap;html=1;fontColor=#143642;rounded=1;" vertex="1" parent="e2BKSe0UK7RhTK9piuV3-7">
          <mxGeometry y="150" width="200" height="30" as="geometry" />
        </mxCell>
        <mxCell id="e2BKSe0UK7RhTK9piuV3-22" value="libraryMember_phone_number" style="text;strokeColor=none;fillColor=none;align=left;verticalAlign=middle;spacingLeft=4;spacingRight=4;overflow=hidden;points=[[0,0.5],[1,0.5]];portConstraint=eastwest;rotatable=0;whiteSpace=wrap;html=1;fontColor=#143642;rounded=1;" vertex="1" parent="e2BKSe0UK7RhTK9piuV3-7">
          <mxGeometry y="180" width="200" height="30" as="geometry" />
        </mxCell>
        <mxCell id="e2BKSe0UK7RhTK9piuV3-23" value="libraryMember_email" style="text;strokeColor=none;fillColor=none;align=left;verticalAlign=middle;spacingLeft=4;spacingRight=4;overflow=hidden;points=[[0,0.5],[1,0.5]];portConstraint=eastwest;rotatable=0;whiteSpace=wrap;html=1;fontColor=#143642;rounded=1;" vertex="1" parent="e2BKSe0UK7RhTK9piuV3-7">
          <mxGeometry y="210" width="200" height="30" as="geometry" />
        </mxCell>
        <mxCell id="e2BKSe0UK7RhTK9piuV3-24" value="libraryMember_address" style="text;strokeColor=none;fillColor=none;align=left;verticalAlign=middle;spacingLeft=4;spacingRight=4;overflow=hidden;points=[[0,0.5],[1,0.5]];portConstraint=eastwest;rotatable=0;whiteSpace=wrap;html=1;fontColor=#143642;rounded=1;" vertex="1" parent="e2BKSe0UK7RhTK9piuV3-7">
          <mxGeometry y="240" width="200" height="30" as="geometry" />
        </mxCell>
        <mxCell id="e2BKSe0UK7RhTK9piuV3-25" value="membership_date" style="text;strokeColor=none;fillColor=none;align=left;verticalAlign=middle;spacingLeft=4;spacingRight=4;overflow=hidden;points=[[0,0.5],[1,0.5]];portConstraint=eastwest;rotatable=0;whiteSpace=wrap;html=1;fontColor=#143642;rounded=1;" vertex="1" parent="e2BKSe0UK7RhTK9piuV3-7">
          <mxGeometry y="270" width="200" height="30" as="geometry" />
        </mxCell>
        <mxCell id="e2BKSe0UK7RhTK9piuV3-26" value="membership_type_id&amp;nbsp; &amp;nbsp; &amp;nbsp;F.K" style="text;strokeColor=none;fillColor=none;align=left;verticalAlign=middle;spacingLeft=4;spacingRight=4;overflow=hidden;points=[[0,0.5],[1,0.5]];portConstraint=eastwest;rotatable=0;whiteSpace=wrap;html=1;fontColor=#143642;rounded=1;" vertex="1" parent="e2BKSe0UK7RhTK9piuV3-7">
          <mxGeometry y="300" width="200" height="30" as="geometry" />
        </mxCell>
        <mxCell id="e2BKSe0UK7RhTK9piuV3-27" value="MembershipType" style="swimlane;fontStyle=0;childLayout=stackLayout;horizontal=1;startSize=30;horizontalStack=0;resizeParent=1;resizeParentMax=0;resizeLast=0;collapsible=1;marginBottom=0;whiteSpace=wrap;html=1;fillColor=#ffe6cc;strokeColor=#d79b00;rounded=1;" vertex="1" parent="1">
          <mxGeometry x="120" y="620" width="200" height="150" as="geometry" />
        </mxCell>
        <mxCell id="e2BKSe0UK7RhTK9piuV3-28" value="membership_type_id" style="text;strokeColor=none;fillColor=none;align=left;verticalAlign=middle;spacingLeft=4;spacingRight=4;overflow=hidden;points=[[0,0.5],[1,0.5]];portConstraint=eastwest;rotatable=0;whiteSpace=wrap;html=1;fontColor=#143642;rounded=1;" vertex="1" parent="e2BKSe0UK7RhTK9piuV3-27">
          <mxGeometry y="30" width="200" height="30" as="geometry" />
        </mxCell>
        <mxCell id="e2BKSe0UK7RhTK9piuV3-29" value="membership_type_title" style="text;strokeColor=none;fillColor=none;align=left;verticalAlign=middle;spacingLeft=4;spacingRight=4;overflow=hidden;points=[[0,0.5],[1,0.5]];portConstraint=eastwest;rotatable=0;whiteSpace=wrap;html=1;fontColor=#143642;rounded=1;" vertex="1" parent="e2BKSe0UK7RhTK9piuV3-27">
          <mxGeometry y="60" width="200" height="30" as="geometry" />
        </mxCell>
        <mxCell id="e2BKSe0UK7RhTK9piuV3-30" value="durationDays" style="text;strokeColor=none;fillColor=none;align=left;verticalAlign=middle;spacingLeft=4;spacingRight=4;overflow=hidden;points=[[0,0.5],[1,0.5]];portConstraint=eastwest;rotatable=0;whiteSpace=wrap;html=1;fontColor=#143642;rounded=1;" vertex="1" parent="e2BKSe0UK7RhTK9piuV3-27">
          <mxGeometry y="90" width="200" height="30" as="geometry" />
        </mxCell>
        <mxCell id="e2BKSe0UK7RhTK9piuV3-31" value="fee&amp;nbsp;" style="text;strokeColor=none;fillColor=none;align=left;verticalAlign=middle;spacingLeft=4;spacingRight=4;overflow=hidden;points=[[0,0.5],[1,0.5]];portConstraint=eastwest;rotatable=0;whiteSpace=wrap;html=1;fontColor=#143642;rounded=1;" vertex="1" parent="e2BKSe0UK7RhTK9piuV3-27">
          <mxGeometry y="120" width="200" height="30" as="geometry" />
        </mxCell>
      </root>
    </mxGraphModel>
  </diagram>
</mxfile>
